<?xml version="1.0" standalone="no"?>
<!DOCTYPE svg PUBLIC "-//W3C//DTD SVG 1.1//EN" "http://www.w3.org/Graphics/SVG/1.1/DTD/svg11.dtd" >
<!--
2013-9-30: Created.
-->
<svg>
<metadata>
Created by iconfont
</metadata>
<defs>

<font id="iconfont" horiz-adv-x="1024" >
  <font-face
    font-family="iconfont"
    font-weight="500"
    font-stretch="normal"
    units-per-em="1024"
    ascent="896"
    descent="-128"
  />
    <missing-glyph />
    
    <glyph glyph-name="checked-right-bottom" unicode="&#58898;" d="M64.5-63.5h895v895l-895-895z m834.21 366.29L656.03 4.460000000000036c-7.58-9.31-18.63-14.15-29.78-14.15-2.17 0-4.34 0.19-6.49 0.56-1.81-0.26-3.62-0.57-5.45-0.57-8.85 0-17.76 3.05-24.98 9.26L428.1 138.14999999999998c-16.07 13.81-17.9 38.03-4.1 54.09 13.82 16.07 38.04 17.89 54.09 4.1L616.46 77.39999999999998 839.2 351.21000000000004c13.37 16.42 37.52 18.93 53.96 5.54 16.44-13.37 18.92-37.51 5.55-53.96z"  horiz-adv-x="1024" />

    
    <glyph glyph-name="warning" unicode="&#59181;" d="M511.994 832C264.592 832 64 631.4259999999999 64 384.006 64 136.57399999999996 264.592-64 511.994-64 759.42-64 960 136.57399999999996 960 384.006 960 631.44 759.42 832 512.006 832h-0.012zM511 0.013000000000033651c-212.07 0-384 171.942-384 384C127 596.097 298.93 768 510.987 768 723.071 768 895 596.0840000000001 895 384c0-212.07-171.93-384-384.013-384l0.013 0.013zM511.323 668c-25.166 0-45.568-20.402-45.568-45.568 0-0.574 0.01-1.148 0.033-1.722l11.332-299.804c0.695-18.39 15.806-32.942 34.21-32.942 18.405 0 33.516 14.551 34.21 32.942l11.321 299.804c0.95 25.15-18.668 46.308-43.818 47.258a45.57 45.57 0 0 1-1.72 0.032z m-0.734-440.016c-35.426 0-63.589-28.252-63.589-63.583 0-34.56 26.537-64.401 63.59-64.401 35.392 0 64.41 28.268 64.41 64.401C575 199.716 545.982 228 510.59 228v-0.016z"  horiz-adv-x="1024" />

    
    <glyph glyph-name="xiaoxi" unicode="&#58912;" d="M512 686.545455a209.454545 209.454545 0 0 0 209.454545-209.454546v-248.552727a91.694545 91.694545 0 0 1 17.454546-53.992727l33.047273-46.545455H252.043636l33.047273 46.545455a91.694545 91.694545 0 0 1 17.454546 53.992727V477.090909a209.454545 209.454545 0 0 0 209.454545 209.454546m0 69.818181a279.272727 279.272727 0 0 1-279.272727-279.272727v-248.552727a23.272727 23.272727 0 0 0-4.421818-13.498182l-59.345455-83.316364A46.545455 46.545455 0 0 1 206.894545 58.181818h610.21091a46.545455 46.545455 0 0 1 37.934545 73.541818l-59.345455 83.316364a23.272727 23.272727 0 0 0-4.421818 13.498182V477.090909A279.272727 279.272727 0 0 1 512 756.363636zM535.272727 779.636364h-46.545454a34.909091 34.909091 0 0 0 0 69.818181h46.545454a34.909091 34.909091 0 0 0 0-69.818181zM593.454545-58.181818h-139.636363a34.909091 34.909091 0 0 0 0 69.818182h139.636363a34.909091 34.909091 0 0 0 0-69.818182z"  horiz-adv-x="1024" />

    
    <glyph glyph-name="juzhongduiqi" unicode="&#58921;" d="M364.15158697 542.95075474h741.54183589c14.61218387 0 27.05619893-5.2050163 37.45916992-15.5232382 10.33234661-10.41709569 15.50911346-22.84698604 15.50911346-37.48741935 0-14.61924623-5.17676685-27.04913656-15.50911346-37.45210753-10.40297098-10.33940898-22.84698604-15.52323819-37.45916992-15.5232382H364.15158697c-14.61924623 0-27.11976093 5.18382922-37.43092046 15.5232382-10.40297098 10.40297098-15.5656131 22.83992366-15.56561237 37.45210753 0 14.64043332 5.16264212 27.07032366 15.56561237 37.48741935 10.31115879 10.31115879 22.8116735 15.52323819 37.43092046 15.5232382m-105.93656602-211.85194421h953.37259302c14.61924623 0 27.07738602-5.15557975 37.48035699-15.55148836 10.31115879-10.33234661 15.50911346-22.82579894 15.50911346-37.43091973 0-14.62630859-5.19089157-27.10563621-15.50911346-37.43091973-10.40297098-10.41003333-22.86817312-15.58680018-37.48035699-15.58680018H258.21502095c-14.61924623 0-27.07738602 5.17676685-37.49448172 15.57973783C210.42350516 251.01076624999996 205.21142577 263.49009384 205.21142577 278.10934008000004s5.21207939 27.10563621 15.50911346 37.43091972c10.41709569 10.41003333 22.88229858 15.55855001 37.49448172 15.55855074m105.93656601-211.89431911h741.54183589c14.61218387 0 27.05619893-5.12026722 37.45916992-15.53736293 10.33234661-10.33234661 15.50911346-22.8116735 15.50911346-37.43092044 0-14.6474957-5.17676685-27.13388565-15.50911346-37.43091972-10.40297098-10.41003333-22.84698604-15.57267547-37.45916992-15.57267547H364.15158697c-14.61924623 0-27.11976093 5.16264212-37.43092046 15.5656131-10.40297098 10.30409643-15.5656131 22.7904864-15.56561237 37.43091972 0 14.62630859 5.16264212 27.10563621 15.56561237 37.43091973 10.31115879 10.42415807 22.8116735 15.53736293 37.43092046 15.53736364M258.21502095 754.78857422h953.37259302c14.61924623 0 27.07738602-5.15557975 37.48035699-15.55148764 10.31115879-10.30409643 15.50911346-22.8116735 15.50911346-37.43092045 0-14.62630859-5.19089157-27.11976093-15.50911346-37.43091973-10.40297098-10.42415807-22.86817312-15.55855001-37.48035699-15.55855001H258.21502095c-14.61924623 0-27.07738602 5.13439194-37.49448172 15.55148764C210.42350516 674.67934282 205.21142577 687.1798575299999 205.21142577 701.79910375c0 14.63337096 5.21207939 27.13388565 15.50911346 37.43092046C231.13763494 749.64711992 243.60283709 754.78857422 258.21502095 754.78857422"  horiz-adv-x="1462" />

    
    <glyph glyph-name="youduiqi" unicode="&#58940;" d="M470.03921975 542.94470191h741.54889753c14.64085191 0 27.09228492-5.2051655 37.49555355-15.5236814 10.33264136-10.38208008 15.52368141-22.83351381 15.52368139-37.46024028 0-14.64085191-5.19104004-27.07816019-15.52368139-37.46730263-10.40326789-10.325579-22.85470163-15.52368141-37.49555355-15.52368139H470.03921975c-14.60553864 0-27.099348 5.1981024-37.43198937 15.52368139-10.38208008 10.38914244-15.5519323 22.82645072-15.5519323 37.46730263 0 14.61966409 5.16278913 27.0710971 15.5519323 37.46024028 10.33264136 10.31145354 22.82645072 15.52368141 37.43198938 15.5236814M258.19534743 331.10083031h953.39276985c14.64085191 0 27.09228492-5.17691458 37.49555354-15.55193229 10.33264136-10.33264136 15.52368141-22.84057617 15.5236814-37.44611482 0-14.62672646-5.19104004-27.12053581-15.5236814-37.41786391-10.40326789-10.42445571-22.85470163-15.58724558-37.49555354-15.58724556H258.20240981c-14.63378883 0-27.06403474 5.16278913-37.46730263 15.58724556C210.38834035 250.98224739 205.21142577 263.47605674 205.21142577 278.1027832c0 14.60553864 5.17691458 27.12053581 15.52368141 37.44611482 10.40326789 10.37501771 22.83351381 15.5519323 37.46024026 15.55193229m211.84387232-211.90037338h741.54889752c14.64085191 0 27.09228492-5.15572678 37.49555355-15.53780686 10.33264136-10.34676682 15.52368141-22.82645072 15.52368139-37.43198936 0-14.64085191-5.19104004-27.13466127-15.52368139-37.46730264-10.40326789-10.37501771-22.85470163-15.5519323-37.49555355-15.55193229H470.03921975c-14.60553864 0-27.099348 5.17691458-37.43198937 15.55193229-10.38208008 10.33264136-15.5519323 22.82645072-15.5519323 37.46730264 0 14.60553864 5.16278913 27.08522256 15.5519323 37.43198936 10.33264136 10.38208008 22.82645072 15.53780686 37.43198938 15.53780686M258.19534743 754.78857422h953.39276985c14.64085191 0 27.09228492-5.13453896 37.49555354-15.53780686C1259.41631217 728.93931382 1264.60735221 716.43844138 1264.60735221 701.83290346c0-14.64085191-5.19104004-27.14878599-15.52368139-37.4531779-10.40326789-10.39620553-22.85470163-15.56605776-37.49555354-15.56605704H258.20240981c-14.63378883 0-27.06403474 5.16985222-37.46730263 15.56605704C210.38834035 674.68411673 205.21142577 687.19911392 205.21142577 701.83290346 205.21142577 716.43844138 210.38834035 728.93225074 220.73510718 739.25076737 231.13837506 749.65403526 243.56862098 754.78857422 258.19534743 754.78857422"  horiz-adv-x="1462" />

    
    <glyph glyph-name="zuoduiqi" unicode="&#58945;" d="M258.20947288 542.93057718h741.55596063c14.61966409 0 27.099348-5.19104004 37.40373846-15.52368213 10.41739334-10.40326789 15.58018248-22.83351381 15.58018247-37.47436499 0-14.61966409-5.16278913-27.04990928-15.58018247-37.46730263-10.30439118-10.325579-22.78407509-15.52368141-37.40373846-15.52368139H258.20947288c-14.60553864 0-27.0710971 5.1981024-37.48849044 15.52368139C210.42365363 462.88968314 205.21142577 475.31992906 205.21142577 489.93959243c0 14.64085191 5.21222786 27.0710971 15.50955667 37.47436572 10.41739334 10.33264136 22.88295181 15.52368141 37.48849044 15.52368139m0-211.85799704h953.39983222c14.60553864 0 27.0710971-5.13453896 37.48849045-15.5519323 10.2973281-10.31145354 15.50955667-22.81232527 15.50955666-37.41786463 0-14.64085191-5.21222786-27.13466127-15.50955666-37.45317718-10.41739334-10.38208008-22.88295181-15.56605776-37.48849045-15.56605703H258.20947288c-14.60553864 0-27.0710971 5.17691458-37.48849044 15.56605703C210.42365363 250.96105956999997 205.21142577 263.46193130999995 205.21142577 278.1027832c0 14.60553864 5.21222786 27.099348 15.50955667 37.41786391 10.41739334 10.41739334 22.88295181 15.5519323 37.48849044 15.55193231m0-211.88624794h741.55596063c14.61966409 0 27.099348-5.15572678 37.40373845-15.53780685 10.41739334-10.33264136 15.58018248-22.82645072 15.58018248-37.46730264 0-14.61966409-5.16278913-27.099348-15.58018248-37.40373845-10.30439118-10.41739334-22.78407509-15.56605776-37.40373845-15.56605776H258.20947288c-14.60553864 0-27.0710971 5.15572678-37.48849044 15.56605776C210.42365363 39.08187398999996 205.21142577 51.56155862000003 205.21142577 66.18122200000005c0 14.64085191 5.21222786 27.13466127 15.50955667 37.46730263 10.41739334 10.38208008 22.88295181 15.53780686 37.48849044 15.53780685M258.20947288 754.78857422h953.39983222c14.60553864 0 27.0710971-5.16278913 37.48849045-15.5519323C1259.39512436 728.92518837 1264.60735221 716.41019119 1264.60735221 701.79052711c0-14.61966409-5.21222786-27.10641037-15.50955667-37.43198937-10.41739334-10.41033098-22.88295181-15.55899466-37.48849044-15.55899467H258.20947288c-14.60553864 0-27.0710971 5.15572678-37.48849044 15.5519323C210.42365363 674.68411673 205.21142577 687.1779261 205.21142577 701.78346474c0 14.62672646 5.21222786 27.13466127 15.50955667 37.45317718C231.13131271 749.61872199 243.60393424 754.78857422 258.20947288 754.78857422"  horiz-adv-x="1462" />

    
    <glyph glyph-name="wareHouseIcon" unicode="&#58901;" d="M818.468438 279.091672L542.663882 279.091672 542.663882 533.188834 652.678508 533.188834 652.678508 461.333296 708.504978 461.333296 708.504978 533.188834 818.468438 533.188834ZM485.825362 279.091672L210.022853 279.091672 210.022853 533.188834 320.088644 533.188834 320.088644 461.333296 375.812783 461.333296 375.812783 533.188834 485.825362 533.188834ZM818.468438-18.523633000000018L542.663882-18.523633000000018 542.663882 235.46710499999995 652.678508 235.46710499999995 652.678508 163.61259099999995 708.504978 163.61259099999995 708.504978 235.46710499999995 818.468438 235.46710499999995ZM485.825362-18.523633000000018L210.022853-18.523633000000018 210.022853 235.46710499999995 320.088644 235.46710499999995 320.088644 163.61259099999995 375.812783 163.61259099999995 375.812783 235.46710499999995 485.825362 235.46710499999995ZM57.393663 585.252607L57.393663 490.46887 512.308527 696.564785 975.554126 490.46887 975.554126 580.0490950000001 516.501012 797.637762Z"  horiz-adv-x="1024" />

    
    <glyph glyph-name="purchaseOrder" unicode="&#59146;" d="M342.199 77.60199999999998c13.2 0 25.6-2.4 37.2-7.2 11.8-4.8 22-11.6 31-20.2 9-8.6 15.8-18.8 20.6-30.6 4.8-11.8 7.2-24.2 7.2-37.2s-2.4-25.4-7.2-37.2c-4.8-11.8-11.8-22-20.6-30.6-9-8.6-19.2-15.4-31-20.6-11.8-5.2-24.2-7.8-37.2-7.8-13.8 0-26.4 2.6-37.8 7.8s-21.6 12-30.6 20.6-15.8 18.8-20.6 30.6c-4.8 11.8-7.2 24.2-7.2 37.2s2.4 25.6 7.2 37.2c4.8 11.8 11.8 21.8 20.6 30.6 9 8.6 19.2 15.4 30.6 20.2S328.399 77.60199999999998 342.199 77.60199999999998L342.199 77.60199999999998zM772.198 75.60199999999998c13.2 0 25.6-2.4 37.8-7.2 12-4.8 22.4-11.6 31-20.2s15.6-18.8 20.6-30.6c5.2-11.8 7.8-24.2 7.8-37.2 0-13-2.6-25.4-7.8-37.2-5.2-11.8-12-22-20.6-30.4-8.6-8.6-19-15.4-31-20.6-12-5.2-24.6-7.8-37.8-7.8s-25.6 2.6-37.2 7.8c-11.8 5.2-21.8 12-30.6 20.6-8.6 8.6-15.6 18.8-20.6 30.4-5.2 11.6-7.8 24-7.8 37.2s2.6 25.6 7.8 37.2c5.2 11.6 12 21.8 20.6 30.6 8.6 8.6 18.8 15.4 30.6 20.2C746.798 73.202 759.198 75.60199999999998 772.198 75.60199999999998L772.198 75.60199999999998zM945.998 662.8009999999999c19.2 0 34.2-2.6 45-7.8 10.6-5.2 18.2-11.6 22.8-19.2s6.6-15.6 6.2-24.2c-0.4-8.6-1.6-16-3.6-22.2-2-6.2-6.4-19-13-38.2s-14-40.4-22.2-63.6c-8.2-23.2-16.4-46-24.2-68.8-8-22.8-14-40.6-18-53.8-9-27.6-20.4-46.6-34.2-57.4-13.8-10.6-30.6-16-50.6-16L311.199 291.601l15.6-93 520.999 0c33 0 49.6-14.2 49.6-42.4 0-13.8-3.2-25.6-9.8-35.6-6.6-10-19.4-15-38.8-15L306.999 105.601c-13.8 0-25.4 3-34.6 9.2-9.4 6.2-17 14.2-23.2 24.2-6.2 10-11.2 20.8-15 32.6-3.8 11.8-6.8 22.8-8.8 33-0.6 4.2-2.6 14.2-5.6 30-3.2 15.8-7 35.6-11.4 59.4-4.4 23.8-9.4 50.4-15 79.6-5.6 29.2-11 58.8-16.6 88.4-13.2 69.6-28 147.2-44.4 232.599L54.8 694.6c-10.4 0-19 2.6-25.8 7.8-7 5.4-12.6 11.6-17.2 18.8s-7.6 15-9.2 23.2C0.8 752.8 0 760.2 0 767.2c0 13.8 4.6 25.2 14 34.2s21.8 13.4 37.8 13.4l104.4 0c13.8 0 24.8-2 33-6.2s14.8-9.4 19.6-15.6c4.8-6.2 8.2-12.8 10.4-19.6 2-7 3.8-12.8 5.2-17.6 1.4-5.6 2.8-13.2 4.2-23.2 1.4-10 2.8-20.2 4.2-30.4 2-12.4 4.2-25.6 6.2-39.4L945.998 662.8 945.998 662.8009999999999z"  horiz-adv-x="1024" />

    
    <glyph glyph-name="reportForms" unicode="&#58889;" d="M569.6 780.8L569.6 896 454.4 896l0-115.2L0 780.8l0-115.2 57.6 0 0-576 358.4 0L192-83.20000000000005 230.4-128l275.2 224 0 0 275.2-224 38.4 44.8-217.6 179.2 364.8 0 0 576L1024 672 1024 780.8 569.6 780.8zM908.8 153.60000000000002L115.2 153.60000000000002l0 512 793.6 0L908.8 153.60000000000002zM281.6 268.79999999999995L281.6 441.6l172.8 0c0 83.2-70.4 147.2-153.6 147.2-83.2 0-153.6-70.4-153.6-153.6C153.6 352 198.4 268.79999999999995 281.6 268.79999999999995zM339.2 211.20000000000005C428.8 211.20000000000005 512 300.79999999999995 512 384L339.2 384 339.2 211.20000000000005zM793.6 556.8L627.2 556.8l0-57.6 172.8 0L800 556.8zM793.6 441.6L627.2 441.6 627.2 384l172.8 0L800 441.6zM793.6 326.4L627.2 326.4l0-57.6 172.8 0L800 326.4z"  horiz-adv-x="1024" />

    
    <glyph glyph-name="stockList" unicode="&#58893;" d="M889.4 641.5l-352 152.3c-16.2 7-34.6 7-50.8 0l-352-152.2C111.2 631.5 96 608.4 96 582.9V33c0-35.4 28.7-64 64-64h704c35.3 0 64 28.7 64 64V582.7c0 25.6-15.2 48.6-38.6 58.8zM288 118c-26.5 0-48 21.5-48 48s21.5 48 48 48 48-21.5 48-48-21.5-48-48-48z m0 160.1c-26.5 0-48 21.5-48 48s21.5 48 48 48 48-21.5 48-48-21.5-48-48-48z m0 159.8c-26.5 0-48 21.5-48 48s21.5 48 48 48 48-21.5 48-48-21.5-48-48-48z m486.6-294.5c-5.8-5.8-13.8-9.4-22.6-9.4H432c-17.6 0-32 14.4-32 32 0 8.8 3.6 16.8 9.4 22.6 5.8 5.8 13.8 9.4 22.6 9.4h320c17.6 0 32-14.4 32-32 0-8.8-3.6-16.8-9.4-22.6z m0 160.1c-5.8-5.8-13.8-9.4-22.6-9.4H432c-17.6 0-32 14.4-32 32 0 8.8 3.6 16.8 9.4 22.6 5.8 5.8 13.8 9.4 22.6 9.4h320c17.6 0 32-14.4 32-32 0-8.8-3.6-16.8-9.4-22.6z m0 159.8c-5.8-5.8-13.8-9.4-22.6-9.4H432c-17.6 0-32 14.4-32 32 0 8.8 3.6 16.8 9.4 22.6 5.8 5.8 13.8 9.4 22.6 9.4h320c17.6 0 32-14.4 32-32 0-8.8-3.6-16.8-9.4-22.6z"  horiz-adv-x="1024" />

    
    <glyph glyph-name="flowDefinition" unicode="&#59053;" d="M567.8 787.3H448.4c-49.5-0.9-88.9-41.8-87.9-91.2 0.9-48.2 39.7-87.9 87.9-87.9h119.5c49.5 0 88.9 41.8 87.9 91.2-0.9 48.2-39.8 87-88 87.9z m0-299.2H448.4c-49.5-0.9-88.9-41.8-87.9-91.3 0.9-48.2 39.7-86.1 87.9-87.9h119.5c49.5 1.8 88.9 41.8 87.9 91.2-0.9 48.3-39.8 87.1-88 88z m0-298.3H448.4c-49.5-1.8-88.9-41.8-87.9-91.2 0.9-48.2 39.8-87 87.9-87.9h119.5c49.5 0.9 88.8 41.8 87.9 91.3-0.9 48.2-39.6 86.8-88 87.7v0.1zM239 130.20000000000005c-31.7-0.1-62 12.5-84.4 34.9-22.4 22.4-35 52.8-34.9 84.5-0.1 31.7 12.5 62 35 84.4 22.4 22.5 52.8 34.9 84.6 34.9h59.6v60h-59.6c-99 0-179.4-80.3-179.4-179.2 0-98.9 80.4-179.2 179-179.2v-59.7l89.6 89.6-89.7 89.6v-59.7h0.2z m538 597.1h-59.6v-60H777c31.7 0 62.1-12.3 84.5-34.7 22.6-22.6 35-52.4 35-84.4 0-31.9-12.7-61.8-35.2-84.4-22.4-22.4-53.4-35-84.8-34.9v59.7L686.9 399l89.6-89.6v59.7c98.6 0 179.4 80.2 179.4 179.1 0.1 99-80 179.1-178.9 179.1z m0 0"  horiz-adv-x="1024" />

    
    <glyph glyph-name="otherIcon" unicode="&#58919;" d="M481.299279 470.938048c0-36.258809-22.193465-57.618279-57.610092-57.618279L140.668275 413.319769c-36.81651 0-56.602136 21.35947-56.602136 57.618279L84.066139 752.9448629999999c0 34.955116 20.464077 57.618279 57.619302 57.618279L424.706353 810.563142c36.434817 0 56.593949-20.62883 56.593949-57.618279L481.300302 470.938048 481.299279 470.938048zM880.266923 810.571329l-284.039101 0c-36.780695 0-57.619302-22.671349-57.619302-56.592926l0-284.064684c0-37.947264 20.160155-56.601112 56.602136-56.601112l284.039101 0c39.520085 0 57.610092 20.010753 57.610092 55.583946L936.859849 753.978403C936.858826 788.578432 915.379629 810.571329 880.266923 810.571329zM890.455983 458.931596L584.228533 458.931596 584.228533 765.192815l306.22745 0L890.455983 458.931596zM880.266923 355.29216799999995l-284.039101 0c-36.780695 0-57.619302-22.670326-57.619302-56.592926l0-284.064684c0-37.947264 20.160155-56.602136 56.602136-56.602136l284.039101 0c39.520085 0 57.610092 20.010753 57.610092 55.583946L936.859849 298.699242C936.858826 333.300294 915.379629 355.29216799999995 880.266923 355.29216799999995zM890.455983 3.652435999999966L584.228533 3.652435999999966 584.228533 309.91365499999995l306.22745 0L890.455983 3.652435999999966zM425.21596 355.29216799999995l-284.039101 0c-36.780695 0-57.618279-22.670326-57.618279-56.592926l0-284.064684c0-37.947264 20.160155-56.602136 56.602136-56.602136l284.039101 0c39.520085 0 57.609069 20.010753 57.609069 55.583946L481.808886 298.699242C481.807862 333.300294 460.329688 355.29216799999995 425.21596 355.29216799999995zM435.405019 3.652435999999966L129.17757 3.652435999999966 129.17757 309.91365499999995l306.22745 0L435.405019 3.652435999999966z"  horiz-adv-x="1024" />

    
    <glyph glyph-name="demonstrated" unicode="&#58926;" d="M481.28 248.32000000000005h66.56c-2.56 12.8-2.56 28.16-2.56 40.96 0 122.88 89.6 225.28 207.36 245.76V686.08h84.48c10.24 0 20.48 10.24 20.48 20.48v20.48c0 10.24-10.24 20.48-20.48 20.48h-793.6c-10.24 0-20.48-10.24-20.48-20.48v-20.48c0-10.24 10.24-20.48 20.48-20.48H128v-417.28c0-12.8 10.24-20.48 20.48-20.48h250.88V102.39999999999998L230.4 40.960000000000036v-20.48h417.28v20.48L481.28 102.39999999999998v145.92z m-271.36 332.8c-10.24 0-20.48 10.24-20.48 20.48s10.24 20.48 20.48 20.48h458.24c10.24 0 20.48-10.24 20.48-20.48s-10.24-20.48-20.48-20.48H209.92z m519.68-373.76l145.92 84.48-145.92 84.48v-168.96zM793.6 499.2c-115.2 0-207.36-92.16-207.36-207.36s92.16-207.36 207.36-207.36 207.36 92.16 207.36 207.36c0 112.64-92.16 207.36-207.36 207.36z m0-376.32c-92.16 0-166.4 74.24-166.4 166.4s74.24 166.4 166.4 166.4 166.4-74.24 166.4-166.4-74.24-166.4-166.4-166.4z"  horiz-adv-x="1024" />

    
    <glyph glyph-name="equipmentMaintenance" unicode="&#58946;" d="M435.4 423.22c173.52 0 314.38 43.86 314.38 98.28v78.43c0 54.42-140.86 98.28-314.38 98.28-173.52 0-314.38-43.86-314.38-98.28v-78.43c0.01-54.1 140.55-98.28 314.38-98.28zM897.36 356.67999999999995s-42.27-42.71-46.74-46.96c-4.25-4.25-19.01-3.8-19.01-3.8s-38.69 4.25-44.28 9.84c-5.59 5.59-9.39 46.07-9.39 46.07s-1.12 11.18 4.47 16.77l46.97 46.96s5.37 6.04-2.46 6.04c-24.82 0-75.14-0.44-99.52-24.82l-4.92-4.92c-28.85-29.07-30.64-72.68-7.38-103.99L572.41 168.60000000000002c-11.41-11.41-26.39-42.27 0-68.43 26.39-26.39 57.25-11.41 68.43 0 0 0 129.04 142.68 128.81 142.45l0.22 0.22c31.31-23.48 74.7-21.69 103.77 7.38l4.92 4.92c23.71 23.7 24.38 73.58 24.38 98.85 0.46 7.83-5.58 2.69-5.58 2.69z m-286.93-242.2c-13.2 0-23.93 10.73-23.93 23.93s10.73 23.93 23.93 23.93c13.19 0 23.93-10.73 23.93-23.93s-10.73-23.93-23.93-23.93zM533.74 192.49c-30.94-3.18-64-4.9-98.33-4.9-173.52 0-314.06 43.86-314.06 98.28v-117.81c0-54.1 140.54-98.28 314.38-98.28 23.87 0 47.12 0.83 69.48 2.41a70.934 70.934 0 0 0-6.58 5.83c-31.88 31.61-13.78 68.89 0 82.66l35.11 31.81zM435.4 246.5c65.47 0 126.29 6.25 176.66 16.95l58.92 53.38c-16.37 22.04-22.47 49.13-17.8 74.85-56.51-16.96-133.27-27.36-217.77-27.36-173.52 0-314.38 43.86-314.38 98.28v-117.81c0-54.11 140.54-98.29 314.37-98.29z"  horiz-adv-x="1024" />

    
    <glyph glyph-name="arrow-right-b" unicode="&#58956;" d="M512 896c-283.927273 0-512-228.072727-512-512s228.072727-512 512-512 512 228.072727 512 512-228.072727 512-512 512z m181.527273-535.272727l-218.763637-176.872728c-4.654545-4.654545-13.963636-9.309091-23.272727-9.30909s-18.618182 4.654545-27.927273 13.963636c-13.963636 13.963636-9.309091 37.236364 4.654546 51.2l186.181818 148.945454-186.181818 148.945455c-13.963636 13.963636-18.618182 32.581818-4.654546 51.2 13.963636 13.963636 32.581818 18.618182 51.2 4.654545l218.763637-176.872727c9.309091-4.654545 13.963636-18.618182 13.963636-27.927273s-9.309091-23.272727-13.963636-27.927272z"  horiz-adv-x="1024" />

    
    <glyph glyph-name="paging-prev" unicode="&#58911;" d="M254.89 384l448 448 60.417-60.33-448-448L254.89 384z m60.843 60.757l453.291-453.376-60.33-60.33-453.377 453.376 60.416 60.33z"  horiz-adv-x="1024" />

    
    <glyph glyph-name="paging-next" unicode="&#58892;" d="M769.11 384l-448-448-60.417 60.33 448 448L769.11 384z m-60.843-60.757l-453.291 453.376 60.33 60.33 453.377-453.376-60.416-60.33z"  horiz-adv-x="1024" />

    
    <glyph glyph-name="icon-close" unicode="&#58885;" d="M566.613333 384l279.893334 279.893333c13.653333 13.653333 13.653333 34.133333 0 47.786667-13.653333 13.653333-34.133333 13.653333-47.786667 0l-286.72-273.066667-273.066667 273.066667c-13.653333 13.653333-34.133333 13.653333-47.786666 0-13.653333-13.653333-13.653333-34.133333 0-47.786667l279.893333-279.893333-279.893333-279.893333c-13.653333-13.653333-13.653333-34.133333 0-47.786667 13.653333-13.653333 34.133333-13.653333 47.786666 0l279.893334 279.893333 279.893333-279.893333c13.653333-13.653333 34.133333-13.653333 47.786667 0 13.653333 13.653333 13.653333 34.133333 0 47.786667L566.613333 384z m0 0"  horiz-adv-x="1030" />

    
    <glyph glyph-name="end" unicode="&#58883;" d="M651.433551 209.70806100000004h-278.867102a34.819346 34.819346 0 0 0-34.858388 34.858388v278.867102a34.819346 34.819346 0 0 0 34.858388 34.858388h278.867102a34.819346 34.819346 0 0 0 34.858388-34.858388v-278.867102a34.819346 34.819346 0 0 0-34.858388-34.858388zM511.994423-128C229.641481-128 0 101.680523 0 384S229.674946 896 511.994423 896C794.3139 896 1024 666.319477 1024 384c-0.011155-282.319477-229.6861-512-512.005577-512z m0 971.712418C258.498649 843.712418 52.287582 637.490196 52.287582 384s206.2278-459.712418 459.706841-459.712418c253.462309 0 459.723573 206.222222 459.723573 459.712418S765.490196 843.712418 511.994423 843.712418z"  horiz-adv-x="1024" />

    
    <glyph glyph-name="start" unicode="&#59189;" d="M512 896C229.666935 896 0 666.333065 0 384s229.666935-512 512-512 512 229.678389 512 512S794.252886 896 512 896z m0-975.171007C256.572707-79.17100700000003 48.760268 128.57270700000004 48.760268 384S256.572707 847.239732 512 847.239732 975.171007 639.427293 975.171007 384 767.427293-79.17100700000003 512-79.17100700000003zM415.899776 576.177539a13.412796 13.412796 0 0 1-17.387382 0.355078c-5.406353-4.157852-8.647875-11.946667-8.453155-20.262371v-369.464698c0-7.788814 3.104072-14.993468 8.109531-19.002416a13.183714 13.183714 0 0 1 16.390872-0.595615C429.713468 178.48984299999995 636.850112 342.135123 649.57566 351.928412c5.360537 4.146398 8.659329 11.786309 8.659329 20.044742s-3.298792 15.909799-8.659329 20.044743z"  horiz-adv-x="1024" />

    
    <glyph glyph-name="box" unicode="&#58884;" d="M912 620.4v-472.7c0-45.1-16-83.6-48-115.7s-70.5-48-115.7-48H275.7c-45.1 0-83.6 16-115.7 48s-48 70.4-48 115.6V620.4c0 45.1 16 83.6 48 115.7s70.5 48 115.7 48h472.7c45.1 0 83.6-16 115.7-48C896 704 912 665.4 912 620.4z m-163.6 90.9H275.7c-25 0-46.3-9-64.2-26.6-17.8-17.8-26.6-39.2-26.6-64.2v-472.7c0-25 8.9-46.3 26.6-64.2s39.2-26.6 64.2-26.6h472.7c25 0 46.3 8.9 64.2 26.6 17.8 17.8 26.6 39.2 26.6 64.2V620.4c0 25-9 46.3-26.6 64.2-17.9 17.7-39.2 26.7-64.2 26.7z"  horiz-adv-x="1024" />

    
    <glyph glyph-name="shuqian" unicode="&#60815;" d="M785.14176 834.56h-552.448c-44.81024 0-57.82528-15.2064-57.82528-59.8016v-580.63872c0-5.70368 1.78176-11.25376 4.58752-16.2816a31.1296 31.1296 0 0 1 12.5952-20.71552l298.9568-216.9856a31.17056 31.17056 0 0 1 36.85376 0l298.9568 216.9856a31.31392 31.31392 0 0 1 12.3904 19.7632c2.22208 4.28032 3.56352 9.07264 3.56352 14.1824l1.14688 584.9088C844.00128 818.41152 827.74016 834.56 785.14176 834.56zM370.91328 425.0112s-54.5792 61.58336-87.3472 98.84672c-11.53024 13.6704-4.0448 32.8704 18.74944 36.47488 46.63296 8.32512 118.8352 24.44288 118.8352 24.44288S457.8304 650.9568 482.816 693.248c15.59552 29.34784 19.43552 32.48128 27.66848 32.48128 8.192 0 10.16832-1.11616 28.09856-32.48128 24.7808-42.25024 60.99968-108.5952 60.99968-108.5952s71.3216-13.312 117.4016-21.61664c22.55872-3.60448 29.96224-28.60032 18.52416-42.14784-32.37888-37.376-83.51744-96.31744-83.51744-96.31744s8.23296-67.79904 13.53728-114.09408c1.57696-17.8688-15.95392-30.8224-29.61408-30.8224a33.792 33.792 0 0 0-14.32576 3.3792c-38.63552 18.41152-97.52576 47.0016-110.70464 53.38112-13.4144-6.37952-72.87808-34.37568-112.0256-52.8384-5.0688-2.29376-9.9328-3.31776-14.4384-3.31776-13.89568 0-32.73728 12.98432-31.03744 30.81216 5.30432 46.21312 17.53088 113.94048 17.53088 113.94048z"  horiz-adv-x="1024" />

    
    <glyph glyph-name="xuxianjiantou" unicode="&#58920;" d="M633.1981023 249.93255428999998L544.38549058 338.74516600000004l22.20315293 22.20315293 88.81261171-88.81261171-22.20315292-22.20315293z m-177.69593412 177.69593411L366.68955647 516.44110012l22.20315293 22.20315293 88.81261171-88.81261172-22.20315293-22.20315293z m-177.69593411 177.69593411L188.99362235 694.13703423l22.20315293 22.20315293 88.81261172-88.81261172-22.20315293-22.20315293zM837.55196206 67.78184744999999L526.28355698 198.45518061999996l142.69414844 37.90092347 37.90092348 142.69414844z"  horiz-adv-x="1024" />

    
    <glyph glyph-name="dotUpArrow" unicode="&#59796;" d="M521.09999999 564.5L521.1 438.9l-31.4 0 0 125.59999999 31.39999999 1e-8z m1e-8-251.3L521.09999999 187.60000000000002l-31.4 0 1e-8 125.6 31.4 0z m0-251.3L521.1-63.700000000000045l-31.4 0 0 125.6 31.4 0zM505.4 837.8L633.1 525.3l-127.7 74.1-127.7-74.1z"  horiz-adv-x="1024" />

    
    <glyph glyph-name="count-store" unicode="&#58888;" d="M0 450.782609v-289.391305l445.217391-244.869565V205.91304300000002L0 450.782609zM489.73913 205.91304300000002v-289.391304l145.623189 92.753623V204.98550699999998a21.333333 21.333333 0 0 0 10.202898 17.623189l307.014493 185.507246a31.536232 31.536232 0 0 0 31.536232 0L1113.043478 339.478261V584.3478259999999zM289.391304 695.6521740000001L0 495.304348l467.478261-244.869565 289.391304 178.086956-467.478261 267.130435zM623.304348 896L222.608696 829.217391l512-289.391304 356.173913 89.043478L623.304348 896zM880.231884-34.31884100000002v-93.681159l289.391304 177.15942V142.84058000000005l-289.391304-177.159421zM880.231884 87.18840599999999v-89.043478l289.391304 177.15942v89.043478L880.231884 87.18840599999999zM662.26087-28.753622999999948l189.217391-99.246377v93.681159L662.26087 64.92753600000003v-93.681159zM662.26087 94.60869600000001l189.217391-99.246377v89.043478L662.26087 183.65217399999995v-89.043478zM1160.347826 284.75362299999995l-190.144927 96.463768-296.811595-173.449275 191.072464-99.246377 295.884058 176.231884z"  horiz-adv-x="1169" />

    
    <glyph glyph-name="allocate-bill" unicode="&#58974;" d="M874.98752 239.79008c24.45312 0 44.4672 20.00896 44.4672 44.4672V739.39968c0 30.56128-25.01632 55.57248-55.5776 55.57248h-122.26048V828.3136c0 30.57152-25.00608 55.57248-55.57248 55.57248H330.98752c-30.5664 0-55.56736-25.00096-55.56736-55.57248v-33.34144H153.15968c-30.5664 0-55.57248-25.00608-55.57248-55.57248V-59.75040000000001c0-30.56128 25.00608-55.57248 55.57248-55.57248h710.15936c30.56128 0 55.57248 25.0112 55.57248 55.57248v144.49152c0 24.45312-20.00896 44.4672-44.4672 44.4672-24.448 0-44.45696-20.00896-44.45696-44.4672v-111.13984H185.94816V706.048h88.91392v-33.34144c0-30.56128 25.00608-55.57248 55.57248-55.57248h355.60448c30.5664 0 55.57248 25.0112 55.57248 55.57248V706.048h88.91904v-421.79072c0-24.45824 20.00384-44.4672 44.45696-44.4672zM652.69248 794.96704V706.048H363.78112V794.96704h288.91136zM298.76224 427.07456c-8.33536-8.88832-12.78464-20.00896-12.78464-31.67744 0-24.45312 20.00384-44.45696 44.46208-44.45696h350.04928c25.55904 0 46.67904 21.11488 47.23712 46.67904 0 12.22144-5.00736 23.90016-13.89568 32.78848l-63.35488 63.36c-8.33024 7.22432-19.45088 11.66848-30.5664 11.66848-24.448 0-44.45696-20.00896-44.45696-44.45696 0-7.23456 1.664-14.45888 5.56032-21.12h-250.5728c-12.23168 0-23.3472-4.4544-31.67744-12.78464zM730.496 239.79008c0 24.45312-20.00384 44.4672-44.45696 44.4672H335.99488c-25.56416 0-46.68416-21.12-46.68416-46.68416 0-12.23168 5.00224-23.90016 13.89056-32.78336l62.80192-62.80704a44.14976 44.14976 0 0 1 32.2304-13.89568c24.45312 0 44.46208 20.00896 44.46208 44.4672 0 7.7824-2.77504 16.11264-6.67136 22.784h250.01472c24.45312-0.00512 44.45696 19.99872 44.45696 44.45184z"  horiz-adv-x="1024" />

    
    <glyph glyph-name="baseInfo" unicode="&#58933;" d="M617.9 214.39999999999998c-18.2 7.8-32.6 16.3-43 25.4-10.4 9.1-18.2 18.9-23.5 29.3-5.2 10.4-8 20.8-8.5 31.3-0.4 10.4 0.2 20.4 2 30 2.6 16.5 7.8 28.2 15.6 35.2 7.8 6.9 18.2 15.6 31.3 26.1 5.2 4.3 10 10.9 14.3 19.6 4.3 8.7 8.2 17 11.7 24.8 3.5 10.4 6.9 21.3 10.4 32.6 6.1 1.8 12.2 5.2 18.3 10.4 5.2 5.2 10 11.7 14.3 19.6 4.3 8.7 7.4 20 9.1 33.9 0.9 10.4 0.4 19.3-1.3 26.7-1.7 7.4-3.9 13.7-6.5 18.9-2.6 5.2-6.1 9.1-10.4 11.7 0 27.8-1.7 55.2-5.2 82.1-3.5 23.5-9.1 47.8-16.9 73s-20.4 48.6-37.8 70.4c-6.9 8.7-16.9 17.8-30 27.4-13 9.5-27.8 17.8-44.3 24.8-16.5 7.8-34.3 13.9-53.4 18.3-19 4-38.1 6.1-57.3 6.1-15.6 0-31.7-1.3-48.2-3.9-16.5-2.6-32.5-7-48.2-13.1-16.5-6.9-32.6-16.3-48.2-28-15.6-11.7-30-26.7-43-44.9-13.9-19.1-24.3-41.1-31.3-65.8-6.9-24.7-11.7-48-14.3-69.7-3.5-24.3-4.8-49.5-3.9-75.6-6.1-6.9-10.4-13.9-13.1-20.8-2.6-6.9-4.4-15-5.2-24.1-0.9-9.1 0.4-19.3 3.9-30.6s7.6-20 12.4-26.1c4.8-6.1 8.9-10.9 12.4-14.3 5.2-2.6 10-4.8 14.3-6.5 3.5-12.2 6.9-23 10.4-32.6 3.5-8.7 7.2-17.2 11.1-25.4s8.5-14.5 13.7-18.9c11.3-9.6 21.7-18.7 31.3-27.4 8.7-8.7 13.9-20.9 15.6-36.5 0.9-10.4 1.3-20 1.3-28.7s-1.7-17.2-5.2-25.4-8.9-16.3-16.3-24.1c-7.4-7.8-18-16.1-31.9-24.8-18.2-11.3-38.9-20-61.9-26.1-23-6.1-45.4-13-67.1-20.8C73.7 171 54.6 161 38.1 148S12 115.89999999999998 9.4 90.70000000000005C2.5 47.200000000000045 0.8 12 4.2-14.899999999999977c3.5-26.9 8.7-43 15.6-48.2 4.3-3.5 13.9-6.9 28.7-10.4 15.6-3.5 34.3-6.9 56-10.4 21.7-2.6 46.3-5.4 73.6-8.5s54.5-5.9 81.4-8.5c29.5-2.6 56-4.4 79.5-5.2 25.2-1.8 47.5-2.6 67.1-2.6s42.3 0.9 68.4 2.6c24.3 0.9 51.7 2.6 82.1 5.2 29.5 2.6 58.2 5.2 86 7.8 15.6 2.6 30.4 4.8 44.3 6.5v279c-5.2 1.8-10 3.5-14.3 5.2-19.1 5.2-37.4 10.9-54.7 16.9v-0.1zM767.7 475h211.1c11.3 0 21.1 4.1 29.3 12.4s12.4 18 12.4 29.3-4.1 21.1-12.4 29.3-18 12.4-29.3 12.4H767.7c-11.3 0-21.1-4.1-29.3-12.4-8.3-8.3-12.4-18-12.4-29.3s4.1-21.1 12.4-29.3c8.2-8.3 18-12.4 29.3-12.4z m211.1-166.8H767.7c-11.3 0-21.1-4.1-29.3-12.4s-12.4-18-12.4-29.3 4.1-21.1 12.4-29.3c8.3-8.3 18-12.4 29.3-12.4h211.1c11.3 0 21.1 4.1 29.3 12.4 8.3 8.3 12.4 18 12.4 29.3s-4.1 21.1-12.4 29.3c-8.3 8.3-18.1 12.4-29.3 12.4z m0-251.5H767.7c-11.3 0-21.1-4.1-29.3-12.4-8.3-8.3-12.4-18-12.4-29.3s4.1-21.1 12.4-29.3c8.3-8.3 18-12.4 29.3-12.4h211.1c11.3 0 21.1 4.1 29.3 12.4 8.3 8.3 12.4 18 12.4 29.3s-4.1 21.1-12.4 29.3c-8.3 8.3-18.1 12.4-29.3 12.4z"  horiz-adv-x="1024" />

    
    <glyph glyph-name="supplierInfo" unicode="&#59356;" d="M435.78 370.97l-8.01 108.1c0 12.01-12.01 20.02-24.02 20.02H215.58c-12.01 0-24.02-12.01-24.02-24.02v-356.32l108.09 8.01c-20.01 116.1 48.05 180.15 136.13 244.21z m-180.16 56.05h112.1V407h-112.1v20.02z m0-56.05v20.02h112.1v-20.021h-112.1zM708.02 455.05c-40.039-40.04-104.1-104.1-140.13-92.09-36.029 12.021-84.07 64.06-116.1 100.09-32.03 32.03-44.04 44.04-36.03 72.07 8.01 28.02 28.02 0 28.02 0s-24.02 48.04 24.02 116.1c44.05 68.06 168.15 72.06 224.2 0 35.35-43.21 24.46-113.41 24.05-116.02 0.33 1.2 4.48 15.26 15.99-0.08 12.01-16.02 12.01-40.04-24.02-80.07zM591.36 350.32000000000005a170.133 170.133 0 0 1-37-41.61c-3.73 5.83-6.311 12.66-2.48 22.23 6.38 15.93 22.91 21.72 39.48 19.38zM573.18 104.23000000000002c-123.85-0.32-245.5 14.64-245.5 34.539 0 104.091 56.05 176.15 164.15 212.181 0 0 19.84-59.521 39.77-99.561a169.61 169.61 0 0 1-3.149-32.64c-0.001-44.189 16.959-84.409 44.729-114.519zM695.889 361.471c-81.238-1.086-146.233-67.84-145.147-149.102 1.086-81.207 67.839-146.223 149.077-145.129 81.242 1.086 146.238 67.84 145.152 149.102-1.071 81.219-67.84 146.215-149.082 145.129z m16.312-49.035c14.949 0 19.363-8.668 19.363-18.594 0-12.402-9.934-23.863-26.867-23.863-14.168 0-20.906 7.133-20.508 18.902 0.008 9.926 8.325 23.555 28.012 23.555z m-38.351-190.04c-10.223 0-17.703 6.207-10.559 33.488l11.723 48.363c2.031 7.754 2.367 10.859 0 10.859-3.055 0-16.332-5.359-24.18-10.637l-5.102 8.367c24.875 20.758 53.465 32.941 65.719 32.941 10.215 0 11.91-12.094 6.809-30.688l-13.43-50.855c-2.367-8.988-1.344-12.09 1.023-12.09 3.055 0 13.113 3.711 22.992 11.48l5.773-7.754c-24.163-24.161-50.534-33.474-60.768-33.474z m0 0"  horiz-adv-x="1024" />

    
    <glyph glyph-name="quote-bill" unicode="&#58897;" d="M691.336533 11.127467000000024a25.9072 25.9072 0 0 1-0.136533-2.594134v-34.133333a25.6 25.6 0 1 1 51.2 0v34.133333 0.136534c72.704 7.816533 145.066667 47.889067 145.066667 134.9632 0 180.155733-273.066667 100.078933-273.066667 212.650666 0 60.074667 46.318933 77.585067 95.095467 77.585067 60.928 0 97.518933-25.019733 102.4-90.077867H870.4c-2.389333 86.357333-56.9344 128.887467-128.546133 137.250134A25.7024 25.7024 0 0 1 742.4 486.4v34.133333a25.6 25.6 0 1 1-51.2 0v-34.269866L689.9712 486.4c-70.690133-7.509333-134.075733-50.039467-134.075733-132.608 0-167.594667 273.066667-85.060267 273.066666-210.158933 0-65.058133-56.081067-82.568533-107.281066-82.568534-63.3856 0-117.0432 30.037333-117.0432 105.096534H546.133333c0-99.669333 62.805333-147.217067 145.2032-155.0336zM102.4 896h819.2a68.266667 68.266667 0 0 0 68.266667-68.266667v-887.466666a68.266667 68.266667 0 0 0-68.266667-68.266667H102.4a68.266667 68.266667 0 0 0-68.266667 68.266667V827.733333a68.266667 68.266667 0 0 0 68.266667 68.266667z m68.266667-230.4h614.4a25.6 25.6 0 1 1 0 51.2H170.666667a25.6 25.6 0 0 1 0-51.2z m0-204.8h273.066666a25.6 25.6 0 1 1 0 51.2H170.666667a25.6 25.6 0 1 1 0-51.2z m0-204.8h136.533333a25.6 25.6 0 1 1 0 51.2H170.666667a25.6 25.6 0 1 1 0-51.2z"  horiz-adv-x="1024" />

    
    <glyph glyph-name="overflow-bill" unicode="&#58969;" d="M965.8368 377.856c-135.168 101.5808-326.8608 76.5952-431.7184-55.9104s-84.7872-324.8128 45.056-432.9472h-509.952c-13.5168 0-26.4192 5.3248-36.0448 14.9504-9.6256 9.6256-14.9504 22.528-14.9504 36.0448V835.7888c0 28.0576 22.528 50.7904 50.9952 50.7904h845.824c28.0576 0 50.9952-22.7328 50.9952-50.7904V377.856z m-823.9104-14.9504c0-13.312 11.264-24.9856 25.3952-24.9856h223.6416c13.5168 0 25.3952 11.264 25.3952 24.9856 0 13.312-11.264 24.9856-25.3952 24.9856H167.1168c-13.7216-0.2048-24.9856-11.264-25.1904-24.9856z m0-199.68c0-13.312 11.0592-24.9856 24.7808-24.9856h174.6944c13.9264 0 24.7808 11.264 24.7808 24.9856 0 13.312-11.0592 24.9856-24.9856 24.9856H166.7072c-6.5536 0-13.1072-2.4576-17.6128-7.168-4.7104-4.7104-7.3728-11.0592-7.168-17.8176z m0 424.1408c0-13.312 11.0592-24.9856 24.576-24.9856H491.52c13.1072 1.024 23.1424 11.8784 23.1424 24.9856 0 13.1072-10.24 23.9616-23.1424 24.9856H166.2976c-13.7216-0.2048-24.3712-11.264-24.3712-24.9856z m0 0M766.976 388.7104c-138.0352 0-249.856-111.8208-249.856-249.856s111.8208-249.856 249.856-249.856 249.856 111.8208 249.856 249.856-111.8208 249.856-249.856 249.856z m0-111.8208c80.2816 0 144.5888-21.7088 144.5888-48.128s-65.1264-48.128-144.5888-48.128c-80.2816 0-144.5888 21.7088-144.5888 48.128s65.1264 48.128 144.5888 48.128z m0-275.8656c-80.2816 0-144.5888 21.0944-144.5888 48.128v34.2016c0-27.2384 65.1264-48.128 144.5888-48.128 80.2816 0 144.5888 21.0944 144.5888 48.128v-34.2016c0-27.2384-65.1264-48.128-144.5888-48.128z m144.5888 103.6288c-0.2048-27.2384-65.1264-48.128-144.5888-48.128-80.2816 0-144.5888 21.0944-144.5888 48.128v34.2016h1.2288c10.24-23.552 70.4512-41.7792 143.36-41.7792 73.1136 0 133.12 18.0224 143.36 41.7792h1.2288v-34.2016z m0 61.8496c-0.2048-27.2384-65.1264-48.128-144.5888-48.128-80.2816 0-144.5888 21.0944-144.5888 48.128v34.6112h1.2288c10.24-23.552 70.4512-41.7792 143.36-41.7792 73.1136 0 133.12 18.0224 143.36 41.7792h1.2288v-34.6112z"  horiz-adv-x="1024" />

    
    <glyph glyph-name="damage-bill" unicode="&#58886;" d="M814.414212 834.59531h-81.619862a35.787034 35.787034 0 0 1 0-71.556413h81.549242a68.254897 68.254897 0 0 0 67.954758-68.131311v-681.489655a68.254897 68.254897 0 0 0-67.954758-68.13131H209.706902a68.272552 68.272552 0 0 0-67.972414 68.13131V263.94482800000003a34.886621 34.886621 0 0 0 35.681104 35.769379h32.873931c0 0.935724 0.141241 1.853793 0.229517 2.789517a62.534621 62.534621 0 0 0 13.312 31.77931l28.248276 36.934621H177.486212a106.707862 106.707862 0 0 1-107.008-107.325793v-252.115862a140.111448 140.111448 0 0 1 139.299311-139.670069h604.70731a140.111448 140.111448 0 0 1 139.29931 139.670069v681.489655a140.499862 140.499862 0 0 1-139.369931 141.329655zM411.77035 580.766897h-178.317241a35.769379 35.769379 0 0 1 0-71.538759h123.745103z m368.675311 0h-116.312276l-12.093793-71.538759h128.423724a34.868966 34.868966 0 0 1 35.663448 35.769379 37.075862 37.075862 0 0 1-35.663448 35.76938z m-190.39338 110.909793a8.827586 8.827586 0 0 0 5.402483-2.242207 9.657379 9.657379 0 0 0 7.062069-11.264l-43.537655-257.641931h167.070896a10.116414 10.116414 0 0 0 9.816276-5.632 28.371862 28.371862 0 0 0 0-12.676414L466.324833 19.26179300000001a13.506207 13.506207 0 0 0-9.851586-4.219586 5.773241 5.773241 0 0 0-4.201931 1.412414 8.103724 8.103724 0 0 0-7.062069 11.264l43.537655 257.641931H299.200971a10.098759 10.098759 0 0 0-9.833931 5.632 9.622069 9.622069 0 0 0 1.412414 12.676414l291.945931 382.958344a9.18069 9.18069 0 0 0 7.256276 5.04938M296.252557 763.038897a35.787034 35.787034 0 0 1 0 71.556413H209.636281a140.129103 140.129103 0 0 1-139.29931-139.687724v-243.641379a36.334345 36.334345 0 0 1 35.698759-37.428966 34.868966 34.868966 0 0 1 35.645793 35.76938V694.907586A68.272552 68.272552 0 0 0 209.653937 763.038897h86.616275z m88.275862 0h259.990069a35.787034 35.787034 0 0 1 0 71.556413h-44.137931a89.847172 89.847172 0 0 1-84.921379 61.316414 88.275862 88.275862 0 0 1-84.921379-61.316414h-44.137931a34.868966 34.868966 0 0 1-35.645794-35.769379 33.544828 33.544828 0 0 1 33.897932-35.787034zM780.463316 165.07586200000003h-122.91531l-50.370207-71.538759h173.285517a34.868966 34.868966 0 0 1 35.663448 35.76938 35.928276 35.928276 0 0 1-35.663448 35.769379z m-390.17931 0H233.453109a35.769379 35.769379 0 0 1 0-71.538759h144.772414z"  horiz-adv-x="1024" />

    
    <glyph glyph-name="accountSleeve-maintenance" unicode="&#58904;" d="M984.95806 159.45644100000004c0-17.524655-14.206779-31.730435-31.730435-31.730435H670.17805c-17.524655 0-31.730435 14.206779-31.730435 31.730435 0 17.524655 14.206779 31.730435 31.730435 31.730435h283.048577c17.525653 0.000998 31.731433-14.20578 31.731433-31.730435zM984.95806 19.71436300000005c0-17.524655-14.206779-31.730435-31.730435-31.730435H670.17805c-17.524655 0-31.730435 14.206779-31.730435 31.730435 0 17.524655 14.206779 31.730435 31.730435 31.730435h283.048577c17.525653 0.000998 31.731433-14.20578 31.731433-31.730435zM843.74869-96.62990000000002c0-17.243174-13.9782-31.221375-31.221374-31.221375s-31.221375 13.9782-31.221375 31.221375V151.54005199999995c0 17.243174 13.9782 31.221375 31.221375 31.221375s31.221375-13.9782 31.221374-31.221375v-248.169952zM798.191775 169.39609499999995c6.621778-15.800836-0.819487-33.977288-16.620324-40.598068-15.800836-6.621778-33.977288 0.819487-40.598068 16.620324l-37.180376 88.723243c-6.621778 15.800836 0.819487 33.977288 16.620324 40.598068 15.800836 6.621778 33.977288-0.819487 40.598068-16.620324l37.180376-88.723243zM894.457098 146.255805c-6.887288-15.686048-25.186513-22.819881-40.87356-15.932593-15.686048 6.887288-22.819881 25.186513-15.932593 40.87356l38.672622 88.083424c6.887288 15.686048 25.186513 22.819881 40.873559 15.932593 15.687046-6.887288 22.819881-25.186513 15.932594-40.87356l-38.672622-88.083424zM741.534348-94.58467499999995v44.476909h-71.538961c-39.507082 0-71.534968 32.026888-71.534967 71.534968 0 34.995409 25.135607 64.101687 58.333334 70.29825-33.197727 6.196563-58.333334 35.30384-58.333334 70.29825 0 37.054608 28.173001 67.527365 64.267381 71.168644-7.810584 33.343458 9.683128 68.295946 42.447654 81.415731 36.133309 14.468296 77.153597-3.094289 91.621894-39.227598l16.747089-41.822807h8.424451l17.113414 42.063363c14.667927 36.052458 55.785037 53.387463 91.837495 38.719536 11.311123-4.601507 20.776652-11.809204 27.993333-20.643898V816.149381c0 44.101602-36.526583 79.852616-81.585418 79.852615H120.62636c-45.057837 0-81.585418-35.751014-81.585418-79.852615v-862.408251c0-44.101602 36.526583-79.852616 81.585418-79.852616h628.358237a70.136549 70.136549 0 0 0-7.450249 31.526811zM230.862896 749.272815h552.987349c18.743405 0 33.937362-15.193956 33.937362-33.937362s-15.193956-33.937362-33.937362-33.937362H230.862896c-18.743405 0-33.937362 15.193956-33.937362 33.937362s15.194955 33.937362 33.937362 33.937362z m0-152.714135h552.987349c18.743405 0 33.937362-15.193956 33.937362-33.937362s-15.193956-33.937362-33.937362-33.937362H230.862896c-18.743405 0-33.937362 15.193956-33.937362 33.937362s15.194955 33.937362 33.937362 33.937362z m2.722974-228.642993c-20.449257 0-37.02666 16.577403-37.02666 37.02666s16.577403 37.02666 37.02666 37.026659 37.02666-16.577403 37.02666-37.026659c-0.000998-20.449257-16.577403-37.02666-37.02666-37.02666z m123.908302 0c-20.449257 0-37.02666 16.577403-37.02666 37.02666s16.577403 37.02666 37.02666 37.026659 37.02666-16.577403 37.02666-37.026659-16.577403-37.02666-37.02666-37.02666z m125.061174 0c-20.449257 0-37.02666 16.577403-37.02666 37.02666s16.577403 37.02666 37.02666 37.026659 37.02666-16.577403 37.02666-37.026659-16.577403-37.02666-37.02666-37.02666z"  horiz-adv-x="1024" />

    
    <glyph glyph-name="return-bill" unicode="&#59780;" d="M630 767.7h-54v0.4c0 35.3-28.7 64-64 64s-64-28.7-64-64v-0.4h-54c-17.6 0-32-14.4-32-32s14.4-32 32-32h236c17.6 0 32 14.4 32 32s-14.4 32-32 32zM495.2 413.7h144.7v-40.6H495.2zM555.3 329l60-38.8c2.3 1.2 5.3 3.5 8.8 7.1 24.7 16.5 43.5 30 56.5 40.6H495.2v-97.1c12.9 4.7 32.9 11.2 60 19.4 9.4 3.5 16.5 5.9 21.2 7.1L527 300.79999999999995l28.3 28.2zM495.2 487.8h144.7v-40.6H495.2zM832 768.2H700v-31c0-35.3-28.9-64.2-64.2-64.2H388.2c-35.3 0-64.2 28.9-64.2 64.2v31H192c-35.3 0-64-28.7-64-64v-705c0-35.3 28.7-64 64-64h640c35.3 0 64 28.7 64 64v705c0 35.3-28.6 64-64 64zM451.1 254.89999999999998v270h231.2v-187.1l5.3 5.3 28.2-28.2L647 269c8.2-4.7 20-11.8 35.3-21.2 11.7-8.2 21.2-14.7 28.2-19.4l-31.8-33.5c-4.7 3.5-10.6 7.6-17.6 12.4-37.7 27.1-65.9 47-84.7 60 0-4.7 0.6-11.8 1.8-21.2 0-9.4 0.6-16.5 1.8-21.2-13-3.5-30.6-8.8-52.9-15.9-15.3-4.7-27.1-8.2-35.3-10.6-1.2-1.2-3.5-2.4-7.1-3.5-4.7-1.2-12.4-4.1-22.9-8.8l-22.9 31.8c8.1 9.3 12.2 21.7 12.2 37zM355.8 539c20-27.1 39.4-54.7 58.2-82.9l-42.4-22.9c-9.4 16.5-24.7 40.6-45.9 72.4-3.5 5.9-6.5 10-8.8 12.4l38.9 21z m363.6-386.5c-2.4-9.4-4.7-16.5-7.1-21.2h-143c-35.3 0-64.1 0.6-86.5 1.8-51.8 2.4-88.9 18.3-111.2 47.7-10.6-8.2-25.3-23.5-44.1-45.9-3.5-4.7-6.5-8.2-8.8-10.6L297.5 172c4.7 4.7 12.9 12.4 24.7 22.9 11.7 10.6 20 18.2 24.7 22.9V348.4H301v45.9h91.8v-173c21.2-33 54.7-48.8 100.6-47.7 72.9-1.2 150.6-1.2 233 0-1.1-3.4-3.5-10.5-7-21.1z"  horiz-adv-x="1024" />

    
    <glyph glyph-name="staffManage" unicode="&#58937;" d="M634.432 202.17600000000004c0 17.984 3.264 35.2 8.96 51.264-26.176 10.56-56.768 20.736-92.8 29.696 0 0-27.52 24.576-12.416 68.8 0 0 79.616 95.232 68.352 198.72 0 0-0.96 163.392-174.08 163.392 0 0-171.904 3.776-171.904-169.344 0 0 3.456-92.864 65.216-188.224 0 0 10.048-41.408-23.808-66.496 0 0-198.976-54.784-227.072-154.176v-82.944s7.552-22.592 28.864-22.592h659.904S784 32.639999999999986 786.88 49.087999999999965c-84.224 0.384-152.448 68.736-152.448 153.088zM949.184 192.76800000000003v41.92l-45.056 7.936c-1.792 7.936-4.48 15.424-7.936 22.592l27.264 38.912-29.632 29.632-36.352-25.408a103.498 103.498 0 0 1-22.976 10.816l-8 45.504h-41.92l-7.68-43.392c-8.384-2.048-16.384-5.056-23.872-8.96l-37.952 26.56-29.632-29.632 25.792-36.864a103.36 103.36 0 0 1-9.856-22.208l-46.848-8.256V200l45.952-8.128c1.984-7.296 4.672-14.272 8.064-20.864l-28.288-40.448 29.632-29.632 39.36 27.584c6.016-3.456 12.416-6.4 19.136-8.64l8.768-49.792H819.2l8.384 47.68c6.848 1.728 13.376 4.096 19.584 7.104l41.408-28.992 29.632 29.632-27.2 38.848a103.608 103.608 0 0 1 9.536 19.904l48.64 8.512z m-147.392-7.936c-19.136 0-34.56 15.488-34.56 34.56 0 19.072 15.488 34.56 34.56 34.56 19.072 0 34.56-15.488 34.56-34.56 0.064-19.072-15.424-34.56-34.56-34.56z"  horiz-adv-x="1024" />

    
    <glyph glyph-name="application-bill" unicode="&#58880;" d="M511.379 128a253.513 253.513 0 0 0 36.571 129.536H213.468a29.257 29.257 0 0 0-25.015 31.89 29.257 29.257 0 0 0 25.015 31.89h387.657A250.149 250.149 0 0 0 877.093 358.4V832.146A63.415 63.415 0 0 1 814.483 896H63.233A63.415 63.415 0 0 1 0.623 832.146v-938.203c0-12.8 18.797-19.164 25.014-12.8l118.93 108.544 106.497-95.744a64.805 64.805 0 0 1 81.408 0l106.422 89.38 106.423-95.744a64.805 64.805 0 0 1 81.408 0l18.798 16.896A254.903 254.903 0 0 0 511.379 128z m-297.91 576.439h450.779a29.257 29.257 0 0 0 25.014-31.89 29.257 29.257 0 0 0-25.014-31.89h-450.78a29.257 29.257 0 0 0-25.015 31.89 29.257 29.257 0 0 0 25.015 31.89z m0-191.561h450.779a29.257 29.257 0 0 0 25.014-31.89 29.257 29.257 0 0 0-25.014-31.89h-450.78a29.257 29.257 0 0 0-25.015 31.89 29.257 29.257 0 0 0 25.015 31.963zM767.379 384a256 256 0 1 1 256-256 256 256 0 0 1-256 256z m0-475.429A219.429 219.429 0 1 0 986.808 128a219.429 219.429 0 0 0-219.429-219.429zM767.379 88.21000000000004h-62.025a24.503 24.503 0 0 0-21.943 10.606 19.53 19.53 0 0 0 0 22.894 58.514 58.514 0 0 0 8.046 8.63c2.56 2.56 5.559 4.755 8.119 7.315a11.045 11.045 0 0 1 0 17.92c-3.438 3.657-7.315 7.314-10.46 10.825a81.189 81.189 0 0 0-22.894 46.811 79.506 79.506 0 0 0 30.647 72.412A106.13 106.13 0 0 0 797.66 306.03a89.746 89.746 0 0 0 69.12-68.316 74.386 74.386 0 0 0-17.554-66.34c-4.023-4.9-8.558-9.509-13.02-14.044-8.192-8.265-8.118-13.458 0.512-21.43a149.211 149.211 0 0 0 12.8-12.07 21.065 21.065 0 0 0-11.922-34.45 32.183 32.183 0 0 0-8.119-1.023H767.38z m164.571-67.73H602.808v29.989a22.82 22.82 0 0 0 25.088 21.942h277.942a23.04 23.04 0 0 0 25.82-22.528c0.292-9.654 0.292-19.456 0.292-29.403z m-311.369-38.766v26.77h289.5c3.437 0 4.535-0.804 4.461-3.876v-23.26z"  horiz-adv-x="1024" />

    
    <glyph glyph-name="store-number" unicode="&#58980;" d="M1006.725981 482.658093a9.541383 9.541383 0 0 0 2.899739-6.861757v-586.388336a9.570093 9.570093 0 0 0-9.570094-9.570093H155.274766a9.570093 9.570093 0 0 0-9.570093 9.570093V475.796336c0 2.679626 1.110131 5.12 2.899738 6.861757h-2.899738L573.162467 710.5315889999999a9.570093 9.570093 0 0 0 8.995888 0l427.467365-227.873496h-2.899739zM237.721121 383.16740200000004v-172.711477h173.697197V383.16740200000004h-173.697197z m0-228.753944v-172.711477h173.697197V154.413458h-173.697197z m268.555963 0v-172.711477h173.697196V154.413458h-173.697196z m245.405907 0v-172.711477h173.697196V154.413458h-173.697196zM506.286654 383.16740200000004v-172.711477h173.697196V383.16740200000004h-173.697196zM576.244037 886.860561a37.974131 37.974131 0 0 1-25.456448-4.564935L19.092336 575.325308a38.127252 38.127252 0 0 1 38.127253-66.033644L576.244037 808.95043l519.024449-299.658766a38.127252 38.127252 0 1 1 38.117682 66.033644L601.710056 882.295626a37.974131 37.974131 0 0 1-25.466019 4.564935z"  horiz-adv-x="1157" />

    
    <glyph glyph-name="material-return" unicode="&#58948;" d="M495.8 783.1h7c9.7-4.7 18.8-10.6 27.6-16.8 129.1-88 258.1-176.4 387.2-264.5 6.1-4.5 13.1-9.6 14.9-17.6 6.6-19.9-12.2-43.4-33.2-41.2-12.7 0.4-22.1 10.6-32.9 16.1-0.1-38.1 0-76.2-0.1-114.2 0.5-13.6-6.3-27.9-18.8-33.9-18.7-10.1-45 3.9-46.2 25.3-0.4 55.9-0.1 111.9-0.1 167.9-100.3 69.4-201 138.4-301.9 207-98.5-68.1-197.4-135.7-296-203.6v-490.3c1.5-16.1-12.1-28.1-26.2-32.6h-10.5c-14.9 3.5-28.4 16.1-27.8 32.3 0 149.6 0.1 299.2-0.1 448.7-14.7-8.4-27.3-25.5-46.1-22.4-14.8 1.8-26 15.2-28.5 29.4v6.5c2.2 8.2 6.5 15.8 14 20.2 122.3 83.4 244.6 167 366.9 250.4 16.9 11.1 32.9 23.6 50.8 33.3z m0 0M293.4 320.4c44.1 0 88.1 0.1 132.2 0v-133.1c-43.9-0.3-87.9 0.2-131.8-0.3-1 44.5-0.2 89-0.4 133.4z m20.5-20.5c0-30.8-0.2-61.5 0.2-92.3 30.3 0.2 60.7-0.1 91.1 0.2 0 30.7 0.1 61.4 0 92.1-30.5 0.1-60.9 0.1-91.3 0z m-20.3-132.7c44-0.4 88 0.1 132-0.3-0.1-44.3 0-88.7 0-133-44.1-0.1-88.1 0-132.2 0 0.1 44.4-0.4 88.8 0.2 133.3z m20.4-20.6c-0.5-30.7-0.1-61.5-0.2-92.3 30.4 0 60.9-0.1 91.3 0v92.1c-30.3 0.4-60.7 0-91.1 0.2zM451.9 167c43.9 0.3 87.8-0.3 131.7 0.3 1.1-44.5 0.2-88.9 0.5-133.4-44.1 0-88.2-0.1-132.2 0-0.1 44.3 0 88.7 0 133.1z m20.4-20.5c0-30.7-0.1-61.4 0-92.1h91.3c-0.3 30.8 0.7 61.7-0.5 92.5-30.3-0.7-60.5-0.1-90.8-0.4zM681 221.29999999999995c15 12.1 26.7 34.8 48.9 32.1l4-18.8-21.9-23.4c56.1-0.3 112.2 0.6 168.2-0.3 39.8 0.5 72.7-32.9 80.3-70.6V122c-3.2-38-34.2-72.7-72.8-76.2-31.8-2-63.7-1.3-95.5-0.7-14.4-2.5-23.2 16.5-10.3 25 44.9 9.9 101.9-15.4 137.5 22.6 30 32.4 4.1 88.4-38.7 90.9-56.4 2.2-112.9-0.1-169.3 0.9 6.3-10 22.7-16.9 21.5-30.1 2.1-14.6-18-15.9-24.5-6.3-15.3 14.6-31 28.9-44.6 45.3-3 12.8 10.8 19.5 17.2 27.9z m0 0"  horiz-adv-x="1024" />

    
    <glyph glyph-name="department-manage" unicode="&#59005;" d="M1305.77267 479.558225a75.061603 75.061603 0 1 1 75.361849-74.761357 75.061603 75.061603 0 0 1-75.361849 74.761357z m0 176.544891a75.061603 75.061603 0 1 1-74.761357 75.061603 75.061603 75.061603 0 0 1 74.761357-75.36185z m0-502.912742a75.061603 75.061603 0 1 1 75.361849-75.061603 75.061603 75.061603 0 0 1-75.361849 75.061603zM1030.746955 712.249195h108.088709a18.765401 18.765401 0 1 1 0 37.530802h-108.088709a130.306943 130.306943 0 0 1-130.006697-129.706451v-196.6614h-201.165097a18.765401 18.765401 0 1 1 0-37.530802h201.165097v-196.661401a130.306943 130.306943 0 0 1 130.306943-130.006697h108.088709a18.765401 18.765401 0 1 1 0 37.530802h-108.088709a92.475895 92.475895 0 0 0-92.776141 92.475895v196.361155h200.86485a18.765401 18.765401 0 1 1 0 37.530801h-200.86485V620.0735460000001a92.475895 92.475895 0 0 0 92.475895 92.175649zM685.163334 215.94187399999998c-70.858154 34.528338-117.096101 60.049283-127.30448 115.294623a322.464648 322.464648 0 0 1 121.599798 260.613886 340.179186 340.179186 0 0 1-69.657168 210.17249 226.385796 226.385796 0 0 1-177.745877 93.977127c-136.612118 0-247.703291-136.912364-247.703291-303.84937a322.464648 322.464648 0 0 1 121.599798-260.613887c-10.208378-55.545586-56.146079-81.066532-125.803247-115.594869-80.766285-38.431541-180.147848-86.470967-180.147848-220.681114v-22.51848l20.116509-10.508625a907.945153 907.945153 0 0 1 411.637833-90.073924 1045.758257 1045.758257 0 0 1 408.935615 90.073924l22.218234 9.908132v23.118973c0.600493 134.210147-98.180577 182.249573-177.745876 220.681114z"  horiz-adv-x="1385" />

    
    <glyph glyph-name="final-deal" unicode="&#59050;" d="M736.8 721.8c32.1 0 58.1 24.6 58.1 54.9 0 30.3-26.1 54.9-58.1 54.9H244.3c8.8-16.5 13.7-35.1 13.7-54.9 0-19.8-5-38.4-13.7-54.9h492.5z m0 0M390.7 188c0 25.2 4 49.4 11.5 72.1H187.9c-7.1 0-12.9 5.8-12.9 12.9 0 7.1 5.8 12.9 12.9 12.9h224.6c0.3 0.7 0.6 1.4 1 2.1 21.7 44.9 57.5 81.8 101.6 104.7H187.9c-7.1 0-12.9 5.8-12.9 12.9 0 7.2 5.8 12.9 12.9 12.9h392.6c2.8 0 5.3-0.9 7.4-2.4 10.9 1.6 22 2.4 33.4 2.4 27.8 0 54.4-4.9 79-13.9 1.4-0.5 2.8-1 4.2-1.6V657H135.4c-17.8 0-32.3 14.5-32.3 32.3 0 17.8 14.4 32.3 32.3 32.3 32.1 0 58.1 24.6 58.1 54.9 0 30.2-26 54.8-58 54.9h-0.1c-0.3 0-0.6 0.1-0.9 0.1-0.3 0-0.5-0.1-0.8-0.1-30.3 0-54.9-24.6-54.9-54.9v-684.6l65.3-63 99.6 96c12.5 12.1 32.3 12.1 44.8 0l103.3-99.6 36.9 35.6c-0.7 1.1-1.5 2.2-2.2 3.3-22.7 36-35.8 78.4-35.8 123.8zM187.9 551.2h392.6c7.1 0 12.9-5.8 12.9-12.9 0-7.1-5.8-12.9-12.9-12.9H187.9c-7.1 0-12.9 5.8-12.9 12.9 0 7.2 5.8 12.9 12.9 12.9z m0 0M941.8 92.70000000000005l-78.1 107.5c-2.2 3-5.7 4.8-9.5 4.8-3.7 0-7.3-1.8-9.4-4.8l-78.1-107.5c-2.6-3.6-3-8.3-1-12.2 2-3.9 6-6.4 10.4-6.4h43.3c-9.4-16-21.4-30.5-36-42.8-34-28.7-77.1-42.4-121.4-38.6-43.1 3.7-82.5 23.6-111 56.1-9.9 11.3-27.1 12.4-38.5 2.5-11.3-9.9-12.4-27.2-2.5-38.5 37.8-43.1 90.2-69.6 147.3-74.4 6.4-0.5 12.8-0.8 19.1-0.8 52 0 101.8 18.1 142.1 52 27.5 23.2 48.5 52.1 61.8 84.5h52c4.4 0 8.4 2.5 10.4 6.4 2 4 1.6 8.7-0.9 12.2z m0 0M507.5 117l78.1 107.5c2.6 3.6 3 8.3 1 12.2-2 3.9-6 6.4-10.4 6.4h-43.7c31.7 54.1 92.2 86.9 157.7 81.4 43.4-3.7 83.1-23.9 111.6-56.8 9.9-11.4 27.1-12.6 38.5-2.7 11.4 9.9 12.6 27.1 2.7 38.5-37.9 43.7-90.5 70.5-148.2 75.4-97.6 8.3-186.9-47.6-223.1-135.7H420c-4.4 0-8.4-2.5-10.4-6.4-2-3.9-1.6-8.6 1-12.2l78-107.6c2.2-3 5.7-4.8 9.5-4.8 3.7 0 7.2 1.8 9.4 4.8z m0 0"  horiz-adv-x="1024" />

    
    <glyph glyph-name="store-coutout" unicode="&#58881;" d="M412.657813 35.68822899999998H225.925809V496.234997c0 11.09863 0 16.644934-5.549917 22.196055l310.73032 233.04473L841.831716 512.8799309999999c-5.547509-5.546304-5.547509-11.096221-5.547509-16.644934v-156.722235h95.562368V489.146179h24.659741c12.329269 0 24.659741 6.16644 36.99503 18.494505 0 12.330473 0 30.82859-12.335289 36.995031L555.77077 865.225597c-12.332881 6.16644-24.66215 6.16644-36.998643 0L93.375635 544.635715c-12.331677-12.332881-18.498117-24.66215-12.331677-36.995031 0-12.328064 12.331677-18.494505 24.659742-18.494505h24.660945v-524.043885c0-18.494505 12.32686-30.82859 30.827386-30.82859h251.464578v101.414525zM931.098799-43.030520000000024l-64.175053 64.175053a15.077134 15.077134 0 0 1-21.392889 0l-1.758055-1.755647s-31.720864 31.501709-32.528847 32.08572c25.128155 31.282554 40.147489 70.989325 40.147489 114.213412 0 100.806431-81.683361 182.4922-182.490996 182.4922s-182.4922-81.685769-182.4922-182.4922c0-100.807635 81.684565-182.4922 182.4922-182.492201 43.222883 0 82.92845 15.019335 114.213412 40.14749 0.512967-0.806779 32.08572-32.527642 32.08572-32.527643l-1.756851-1.758055a15.077134 15.077134 0 0 1 0-21.392889l64.175053-64.175053a15.077134 15.077134 0 0 1 21.392888 0l32.086925 32.086925a15.07593 15.07593 0 0 1 0.001204 21.392888z m-262.197146 96.483541c-61.978688 0-112.161544 50.256309-112.161544 112.234997 0 61.977483 50.256309 112.233793 112.234997 112.233792 61.976279 0 112.232589-50.256309 112.232588-112.233792-0.072249-61.977483-50.327354-112.234997-112.306041-112.234997z m0 0M376.534585 81.15684699999997c0-7.979887-6.469886-14.449773-14.449773-14.449772h-89.106931c-7.979887 0-14.449773 6.469886-14.449773 14.449772v89.106932c0 7.979887 6.469886 14.449773 14.449773 14.449773h89.106931c7.979887 0 14.449773-6.469886 14.449773-14.449773v-89.106932zM376.534585 237.696051c0-7.979887-6.469886-14.449773-14.449773-14.449772h-89.106931c-7.979887 0-14.449773 6.469886-14.449773 14.449772v89.106932c0 7.979887 6.469886 14.449773 14.449773 14.449773h89.106931c7.979887 0 14.449773-6.469886 14.449773-14.449773v-89.106932z"  horiz-adv-x="1024" />

    
    <glyph glyph-name="create-instore-bill" unicode="&#59087;" d="M113.7 11.5V757.8c0 13.8 11.2 25 25 25h579.6c13.8 0 25-11.2 25-25v-220.6c0-13.8 11.2-25 25-25s25 11.2 25 25V757.8c0 41.4-33.6 75-75 75H138.7c-41.4 0-75-33.6-75-75v-746.4c0-41.4 33.6-75 75-75h284.4c13.8 0 25 11.2 25 25s-11.2 25-25 25H138.7c-13.8 0.1-25 11.3-25 25.1zM945.2 213.60000000000002l-47.3 94.9c-6 12-18 19.4-31.3 19.4H686.8c-12.9 0-24.8-7.1-30.9-18.5l-52.8-98.9h0.1c-8-11.9-12.6-26.2-12.6-41.6v-155.7c0-41.4 33.6-75 75-75h219.6c41.4 0 75 33.6 75 75V168.79999999999995c-0.1 16.7-5.6 32.3-15 44.8z m-249.4 64.2h161.6l17-34.1H677.6l18.2 34.1z m214.3-264.7c0-13.8-11.2-25-25-25H665.5c-13.8 0-25 11.2-25 25V168.79999999999995c0 13.8 11.2 25 25 25h219.6c13.8 0 25-11.2 25-25v-155.7zM613.6 665H217c-13.8 0-25-11.2-25-25s11.2-25 25-25h396.6c13.8 0 25 11.2 25 25 0 13.9-11.2 25-25 25zM217 422.8h396.6c13.8 0 25 11.2 25 25s-11.2 25-25 25H217c-13.8 0-25-11.2-25-25s11.2-25 25-25zM390.6 244.29999999999995l40.1-27.5H217c-13.8 0-25-11.2-25-25s11.2-25 25-25h211.7L391 141.60000000000002c-11.5-7.7-14.6-23.2-6.9-34.7 7.7-11.5 23.2-14.6 34.7-6.9l96 64c19.7 13.1 19.9 42.1 0.4 55.5l-96.3 66c-11.4 7.8-26.9 4.9-34.8-6.5-7.8-11.4-4.9-26.9 6.5-34.7z"  horiz-adv-x="1024" />

    
    <glyph glyph-name="approval" unicode="&#58891;" d="M538.027 137.813l34.56 43.094c-22.614 27.306-36.267 62.293-36.267 99.84 0 86.186 70.4 156.586 157.013 156.586 46.507 0 88.747-20.48 117.334-52.48V760.7470000000001c0 28.16-23.04 51.2-51.2 51.2H204.8c-28.16 0-51.2-23.04-51.2-51.2v-665.6c0-28.16 23.04-51.2 51.2-51.2h246.187c10.666 44.8 43.946 80.64 87.04 93.866zM337.493 691.2h290.134c18.773 0 34.133-15.36 34.133-34.133s-15.36-34.134-34.133-34.134H337.493c-18.773 0-34.133 15.36-34.133 34.134s14.933 34.133 34.133 34.133z m0-153.6h290.134c18.773 0 34.133-15.36 34.133-34.133s-15.36-34.134-34.133-34.134H337.493c-18.773 0-34.133 15.36-34.133 34.134s14.933 34.133 34.133 34.133zM303.36 349.86699999999996c0 18.773 15.36 34.133 34.133 34.133H456.96c18.773 0 34.133-15.36 34.133-34.133s-15.36-34.134-34.133-34.134H337.493c-19.2 0-34.133 15.36-34.133 34.134zM811.093-42.66700000000003H575.147c-32.427 0-58.88 26.454-58.88 58.88s26.453 58.88 58.88 58.88L672 195.413c-38.827 9.387-67.413 43.947-67.413 85.334 0 48.64 39.68 88.32 88.746 88.32s88.747-39.68 88.747-88.32c0-41.387-28.587-75.947-67.413-85.334l96.853-120.32c32.427 0 58.88-26.453 58.88-58.88 0-32.426-26.453-58.88-59.307-58.88z"  horiz-adv-x="1024" />

    
    <glyph glyph-name="itemsInfo" unicode="&#59074;" d="M905.27 636.54l-90.49 113.58c-8.45 10.62-22.12 17.88-35.72 17.88H315.41c-13.6 0-26.47-7.24-34.91-17.86L188.07 637c-9.33-11.75-19.71-34.19-19.71-50.76v-82.45c14.24 11.18 20.27 19.63 32.74 23.89 0.73 9.41 4.91 18.58 9.81 26.87a63.38 63.38 0 0 0 38.94 28.87 65.39 65.39 0 0 0 16.73 2.17 62.77 62.77 0 0 0 52.28-28 63.28 63.28 0 0 0 10.3 0.89 58 58 0 0 0 29.12-7.89L408 563.5799999999999a75.57 75.57 0 0 0 92.11-54.13l97.41-374.29a75.1 75.1 0 0 0-8-57.27c-10.22-17.38-26.63-32.34-46.18-37.41l-43.43-13.91H865c30.81 0 58.88 30.16 58.88 61V587.8c0 15-9.17 37-18.58 48.74z m-685.18 3.14l29.68 28.47h202.71l20 42.8H276.07L298 734.76c4.26 5.31 10.62 4.67 17.46 4.67h463.6c6.84 0 13.19 0.64 17.46-4.67l22-23.81h-200l11.18-42.8h215l29.68-28.47z m0 0M353.53 506l-0.16 0.48a25 25 0 0 1-30.48 17.86L310.34 521a12.52 12.52 0 0 0-15.29 9l-0.07 0.4a29.14 29.14 0 0 1-35.48 20.84l-0.64-0.16A29.14 29.14 0 0 1 238 515.64l0.09-0.4a12.51 12.51 0 0 0-9-15.28l-12.55-3.3a25 25 0 0 1-17.86-30.49l0.16-0.48a25 25 0 0 1 30.49-17.86L335.6 475.5a25 25 0 0 1 17.93 30.5z m-83.73 4.5a12.59 12.59 0 1 0 9 15.36 12.56 12.56 0 0 0-9-15.36zM420.06 150a8.31 8.31 0 0 0-6-10.21l-154.6-40.22a8.3 8.3 0 0 0-10.21 6l-2.1 8.13a8.32 8.32 0 0 0 6 10.21l154.6 40.22a8.32 8.32 0 0 0 10.22-6z m18.82 161.29l2.09-8.13a8.32 8.32 0 0 0-6-10.22l-211.56-55a8.31 8.31 0 0 0-10.21 6l-2.12 8.06a8.31 8.31 0 0 0 6 10.22l211.56 55a8.38 8.38 0 0 0 10.21-6zM416 366.1l-211.56-55a8.31 8.31 0 0 0-10.22 6l-2.09 8.12a8.32 8.32 0 0 0 6 10.22l211.55 55a8.32 8.32 0 0 0 10.22-6l2.09-8.12a8.38 8.38 0 0 0-6-10.22z m-4.67-148.89l-170.9-44.48a8.31 8.31 0 0 0-10.21 6l-2.09 8.12a8.32 8.32 0 0 0 6 10.22L405 241.58000000000004a8.3 8.3 0 0 0 10.21-6l2.09-8.13a8.44 8.44 0 0 0-6-10.21z m0 0M565.09 126.88l-97.41 374.28a42 42 0 0 1-51.24 30.09l-49.63-12.87a35.08 35.08 0 0 0 2.81-7.73 42 42 0 0 0-29.76-51.48l-104.73-27.26c-21.4-5.56-44.4 5.46-51.56 26.3a40.8 40.8 0 0 0-2.25 11.74L131.6 457a42 42 0 0 1-30.08-51.24l97.41-374.29a42 42 0 0 1 51.24-30.08L535 75.48000000000002a42.29 42.29 0 0 1 30.08 51.4z m-325.54-84.71l-84.62 325.54 284.84 74.09 84.7-325.46z m0 0"  horiz-adv-x="1024" />

    
    <glyph glyph-name="department-approval" unicode="&#59062;" d="M512 384m-469.333333 0a469.333333 469.333333 0 1 1 938.666666 0 469.333333 469.333333 0 1 1-938.666666 0ZM320 509.44a50.773333 50.773333 0 0 0 50.773333-50.773333 49.92 49.92 0 0 0-17.066666-37.546667 52.053333 52.053333 0 0 1 14.08-85.333333 115.2 115.2 0 0 0 65.706666-76.8H210.346667a115.626667 115.626667 0 0 0 64 76.373333 52.053333 52.053333 0 0 1 12.8 85.333333 50.346667 50.346667 0 0 0-17.493334 37.973334A50.773333 50.773333 0 0 0 320 509.44m0 52.053333a102.4 102.4 0 0 1-66.986667-179.626666 166.826667 166.826667 0 0 1-98.133333-151.893334 23.466667 23.466667 0 0 1 23.466667-23.466666h286.72a23.466667 23.466667 0 0 1 23.466666 23.466666A166.826667 166.826667 0 0 1 388.266667 384a102.4 102.4 0 0 1-68.266667 177.493333zM542.72 590.0799999999999v-184.32h-27.733333a26.026667 26.026667 0 0 1 0-52.053333h27.733333v-175.786667a26.026667 26.026667 0 0 1 26.026667-26.026667h53.76a26.026667 26.026667 0 1 1 0 52.053334h-27.733334v149.76h27.733334a26.026667 26.026667 0 1 1 0 52.053333h-27.733334V564.0533330000001h27.733334a26.026667 26.026667 0 1 1 0 52.053334h-54.186667a26.026667 26.026667 0 0 1-25.6-26.026667zM754.773333 516.6933329999999A80.64 80.64 0 1 0 835.413333 597.333333a80.64 80.64 0 0 0-80.64-80.64z m0 109.226667a28.586667 28.586667 0 1 1 28.586667-28.586667 28.586667 28.586667 0 0 1-28.586667 28.586667zM754.773333 293.54666699999996a80.64 80.64 0 1 0 80.64 80.64 80.64 80.64 0 0 0-80.64-80.64z m0 109.226666a28.586667 28.586667 0 1 1 28.586667-28.586666 28.586667 28.586667 0 0 1-28.586667 28.586666zM754.773333 90.02666699999997A80.64 80.64 0 1 0 835.413333 170.66666699999996a80.64 80.64 0 0 0-80.64-80.64z m0 109.226666a28.586667 28.586667 0 1 1 28.586667-28.586666 28.586667 28.586667 0 0 1-28.586667 28.586666z"  horiz-adv-x="1024" />

    
    <glyph glyph-name="store-info" unicode="&#58882;" d="M19.956517-27.308717l1003.832681 0 0 34.051537L19.956517 6.7428200000000516 19.956517-27.308717zM955.574584 42.00492899999995L955.574584 525.3359820000001 513.889023 777.622916 70.776973 525.3359820000001l0-483.331054 68.061119 0L138.838092 491.305935l748.675374 0 0-449.301006L955.574584 42.00492899999995zM853.479325 281.042093l-44.690852 0 0-21.020756-12.671601 0 0 21.020756-44.687782 0 0-101.966323 102.049211 0L853.478302 281.042093zM734.50156 162.30275900000004l0-119.219265 118.751614 0L853.253174 162.30275900000004l-51.90516 0 0-24.89704-14.939247 0 0 24.89704L734.50156 162.30275900000004zM290.915719 193.41126699999995l-15.005762 0 0 24.886807-52.156894 0 0-119.219265 119.320573 0L343.073636 218.29807400000004l-52.156894 0L290.916742 193.41126699999995zM513.889023 846.746226L2.711761 554.800038l0-45.088918L513.889023 801.648099l511.191588-291.935955 0 45.086871L513.889023 846.746226zM462.313368 43.06916699999999l-0.184195 402.949328-17.015535 0 0-17.015535L189.883675 429.00296l0.534166 17.183358-17.367553 0 0-403.118174 17.35732 0-0.523933 16.974603 255.229962 0-0.163729-16.974603L462.313368 43.06814399999996zM189.883675 411.987425l255.229962 0 0-150.449547L189.883675 261.537877l0.002047 147.095149L189.883675 411.987425zM189.883675 77.05930599999999l0 167.464059 255.229962 0 0-167.464059L189.883675 77.05930599999999zM427.840228 386.719948l-51.927673 0 0-24.894993-14.933107 0 0 24.894993-51.930743 0 0-102.202707 119.321596 0L427.840228 386.719948zM598.291318 144.91985599999998l0-101.966323 102.049211 0 0 101.966323-44.690852 0 0-21.020756-12.671601 0 0 21.020756L598.291318 144.91985599999998z"  horiz-adv-x="1041" />

    
    <glyph glyph-name="department-icon" unicode="&#58890;" d="M316.043514-7.573232999999959L188.745247-7.573232999999959c-7.554046 0-14.008039 6.450922-14.008039 14.002922L174.737208 762.6478529999999c0 7.54586 6.346545 14.010085 14.008039 14.010085l644.212184 0c7.554046 0 14.007015-6.349615 14.007015-14.010085l0-407.755798 56.017828-24.161283L902.982274 762.6478529999999c0 38.513152-31.506575 70.02075-70.024843 70.02075l-644.212184 0c-38.520315 0-70.021773-31.455409-70.021773-70.02075l0-756.219187c0-38.4538 31.501458-70.02075 70.021773-70.02075l127.297244 0L316.042491-7.573232999999959 316.043514-7.573232999999959zM770.75167 429.899376c0 73.098855-59.272965 132.324748-132.328841 132.324748-73.099878 0-132.327818-59.225893-132.327818-132.324748 0-73.099878 59.228963-132.320655 132.327818-132.320655C711.478705 297.579745 770.75167 356.800521 770.75167 429.899376L770.75167 429.899376zM814.860261 253.47115499999995l-0.085958 0L790.476921 253.47115499999995l-137.235594-278.555204 51.346435 256.496815-66.163909 66.165955-66.163909-66.165955 51.260477-256.496815L486.280734 253.47115499999995 461.985398 253.47115499999995l-0.084934 0c-88.152712 0-88.152712-59.273988-88.152712-132.326794l0-184.736445 529.331737 0L903.079488 121.14538300000004C903.080511 194.19716600000004 903.080511 253.47115499999995 814.860261 253.47115499999995L814.860261 253.47115499999995zM263.239891 686.2846509999999l492.242004 0 0-51.909254L263.239891 634.375397 263.239891 686.2846509999999 263.239891 686.2846509999999zM263.239891 553.83199l170.049954 0 0-55.488779L263.239891 498.343211 263.239891 553.83199 263.239891 553.83199zM263.239891 411.53717l189.736319 0 0-51.909254L263.239891 359.627916 263.239891 411.53717 263.239891 411.53717zM263.239891 411.53717"  horiz-adv-x="1024" />

    
    <glyph glyph-name="instore-bill" unicode="&#58989;" d="M1024 81.06666700000005c-4.266667 64-29.866667 375.466667-362.666667 392.533333L661.333333 571.733333c0 4.266667 0 17.066667-8.533333 29.866667-8.533333 12.8-25.6 12.8-46.933333 4.266667l-4.266667 0-187.733333-204.8c-4.266667-4.266667-21.333333-25.6-21.333333-46.933333 0-25.6 21.333333-46.933333 25.6-46.933333l187.733333-213.333333c4.266667-4.266667 17.066667-17.066667 29.866667-17.066667 12.8 0 21.333333 8.533333 25.6 17.066667 4.266667 8.533333 4.266667 17.066667 4.266667 29.866667l0 123.733333c55.466667 0 209.066667-8.533333 302.933333-174.933333 4.266667-12.8 17.066667-17.066667 25.6-17.066667l8.533333 0 8.533333 8.533333C1024 68.26666699999998 1024 76.79999999999995 1024 81.06666700000005L1024 81.06666700000005zM678.4 290.133333c-21.333333 0-34.133333 0-34.133333 0l-21.333333-4.266667 0-145.066667-170.666667 196.266667c-4.266667 4.266667-12.8 12.8-12.8 17.066667 0 4.266667 4.266667 12.8 8.533333 17.066667l166.4 179.2 0-123.733333 21.333333 0c238.933333 0 311.466667-162.133333 332.8-273.066667C870.4 277.33333300000004 738.133333 290.133333 678.4 290.133333L678.4 290.133333zM678.4 290.133333M524.8 593.066667c0 21.333333-17.066667 38.4-38.4 38.4l-256 0C213.333333 631.4666669999999 196.266667 614.4 196.266667 593.066667c0-21.333333 17.066667-38.4 38.4-38.4l256 0C507.733333 558.933333 524.8 576 524.8 593.066667L524.8 593.066667zM524.8 593.066667M328.533333 311.46666700000003L234.666667 311.46666700000003c-21.333333 0-38.4-17.066667-38.4-38.4 0-21.333333 17.066667-38.4 38.4-38.4l98.133333 0c21.333333 0 38.4 17.066667 38.4 38.4C366.933333 294.4 349.866667 311.46666700000003 328.533333 311.46666700000003L328.533333 311.46666700000003zM328.533333 311.46666700000003M396.8 435.2c0 21.333333-17.066667 38.4-38.4 38.4l-128 0c-21.333333 0-38.4-17.066667-38.4-38.4 0-21.333333 17.066667-38.4 38.4-38.4l128 0C379.733333 396.8 396.8 413.866667 396.8 435.2L396.8 435.2zM396.8 435.2M836.266667 140.79999999999995C836.266667 140.79999999999995 836.266667 140.79999999999995 836.266667 140.79999999999995l0-59.733333c0-34.133333-29.866667-64-64-64l-149.333333 0L307.2 17.066667000000052 162.133333 17.066667000000052c-34.133333 0-64 29.866667-64 64L98.133333 669.866667l0 0L98.133333 691.2c0 0 0 4.266667 0 4.266667C98.133333 725.333333 128 755.2 162.133333 755.2l610.133333 0c34.133333 0 64-25.6 64-59.733333 0 0 0-4.266667 0-4.266667l0-21.333333 0 0 0-149.333333c29.866667-21.333333 64-46.933333 98.133333-76.8L934.4 584.5333330000001l0 0L934.4 721.066667c0 12.8 0 25.6-4.266667 34.133333 0 4.266667 0 4.266667-4.266667 8.533333-17.066667 51.2-64 85.333333-119.466667 85.333333l0 0L128 849.066667l0 0c-59.733333 0-110.933333-42.666667-123.733333-98.133333 0-4.266667 0-8.533333-4.266667-12.8 0 0 0-4.266667 0-8.533333C0 729.6 0 725.333333 0 721.066667l0-140.8 0-537.6c0-72.533333 55.466667-128 128-128l192 0 0 0 98.133333 0 0 0 98.133333 0 0 0 98.133333 0 0 0 192 0c64 0 119.466667 46.933333 128 110.933333 0 0 0 4.266667-4.266667 8.533333C904.533333 81.06666700000005 866.133333 115.20000000000005 836.266667 140.79999999999995L836.266667 140.79999999999995zM836.266667 140.79999999999995"  horiz-adv-x="1024" />

    
    <glyph glyph-name="system-permission" unicode="&#58887;" d="M218.453333 670.72L310.613333 588.8c54.613333 61.44 133.12 98.986667 221.866667 98.986667 68.266667 0 129.706667-23.893333 180.906667-61.44l54.613333 54.613333 23.893333-30.72-47.786666-51.2c54.613333-54.613333 85.333333-126.293333 85.333333-208.213333 0-78.506667-30.72-150.186667-78.506667-201.386667l81.92-75.093333-27.306666-27.306667-88.746667 75.093333c-51.2-40.96-116.053333-64.853333-187.733333-64.853333-78.506667 0-150.186667 30.72-201.386667 78.506667l-40.96-40.96-23.893333 30.72 37.546666 40.96c-40.96 51.2-68.266667 116.053333-68.266666 187.733333 0 61.44 20.48 119.466667 51.2 167.253333L194.56 640l23.893333 30.72z m163.84-436.906667h307.2s6.826667 40.96 0 64.853334-71.68 98.986667-81.92 102.4c-3.413333 0-23.893333 3.413333-47.786666 0 34.133333 13.653333 54.613333 54.613333 54.613333 92.16 0 47.786667-34.133333 85.333333-78.506667 85.333333-44.373333 0-78.506667-37.546667-78.506666-85.333333 0-37.546667 23.893333-81.92 58.026666-92.16h-47.786666s-78.506667-58.026667-81.92-109.226667c-10.24-51.2-3.413333-58.026667-3.413334-58.026667zM170.666667 66.55999999999995m-136.533334 0a136.533333 136.533333 0 1 1 273.066667 0 136.533333 136.533333 0 1 1-273.066667 0ZM877.226667 46.08000000000004m-146.773334 0a146.773333 146.773333 0 1 1 293.546667 0 146.773333 146.773333 0 1 1-293.546667 0ZM143.36 715.093333m-143.36 0a143.36 143.36 0 1 1 286.72 0 143.36 143.36 0 1 1-286.72 0ZM829.44 738.986667m-129.706667 0a129.706667 129.706667 0 1 1 259.413334 0 129.706667 129.706667 0 1 1-259.413334 0Z"  horiz-adv-x="1024" />

    
    <glyph glyph-name="arrow-up-copy" unicode="&#59799;" d="M483.28971972-124.80996900000002l0 861.30841101L563.04049872 736.49844201 563.04049872-124.80996901000003l-79.750779 1e-8zM403.53894071 695.02803698L521.57009373 895.99999999l121.22118401-200.97196301-239.25233703 0z"  horiz-adv-x="1024" />

    
    <glyph glyph-name="arrow-down-copy" unicode="&#59800;" d="M540.71028028 892.809969l0-861.30841101L460.95950128 31.501557990000038 460.95950128 892.80996901l79.750779-1e-8zM620.46105929 72.97196301999998L502.42990627-127.99999998999999l-121.22118401 200.97196301 239.25233703 0z"  horiz-adv-x="1024" />

    
    <glyph glyph-name="arrow-left-copy" unicode="&#59801;" d="M1020.809969 355.28971972l-861.30841101 0L159.50155799 435.04049872 1020.80996901 435.04049872l-1e-8-79.750779zM200.97196302 275.53894071L1e-8 393.57009373l200.97196301 121.22118401 0-239.25233703z"  horiz-adv-x="1024" />

    
    <glyph glyph-name="arrow-right" unicode="&#59056;" d="M851.48174554 3.9157867100000203l-609.03701812 609.03701812L298.83704406 669.34512146 907.87406218 60.30810334l-56.39231664-56.39231663zM215.37641539 527.23648357L156.72840621 752.80575013l227.82495911-56.39231663-169.17694993-169.17694993z"  horiz-adv-x="1024" />

    
    <glyph glyph-name="arrow-right-copy" unicode="&#59797;" d="M131.91578671 44.51825445999998l609.03701812 609.03701812L797.34512146 597.1629559400001 188.30810334-11.87406218000001l-56.39231663 56.39231664zM655.23648357 680.62358461L880.80575013 739.27159379l-56.39231663-227.82495911-169.17694993 169.17694993z"  horiz-adv-x="1024" />

    
    <glyph glyph-name="arrow" unicode="&#59798;" d="M3.190031 412.71028028l861.30841101 0L864.49844201 332.95950128000004 3.19003099 332.95950128000004l1e-8 79.750779zM823.02803698 492.46105929L1023.99999999 374.42990626999995l-200.97196301-121.22118401 0 239.25233703z"  horiz-adv-x="1024" />

    
    <glyph glyph-name="check-price" unicode="&#58916;" d="M727.5 480.9C563.7 480.9 431 348.5 431 185.1c0-163.3 132.8-295.8 296.5-295.8 163.8 0 296.5 132.4 296.5 295.8S891.2 480.9 727.5 480.9zM903.4 249.4l-193-205.5c-5.4-5.8-13-9.1-20.9-9.2-0.1 0-0.2 0-0.3 0-7.8 0-15.3 3.1-20.8 8.7L556.6 157.8c-11.2 11.4-11 29.8 0.5 40.9 11.5 11.2 29.9 10.9 41-0.5l90.6-92.6L861 289c11 11.7 29.3 12.3 41 1.3C913.7 279.4 914.3 261.1 903.4 249.4zM226.9 849.7 226.9 749.8 226.9 849.7ZM226.9 720.9c-16 0-29 13-29 29L197.9 849.7c0 16 13 29 29 29s29-13 29-29l0-99.9C256 733.8 243 720.9 226.9 720.9zM401.9 849.7 401.9 749.8 401.9 849.7ZM401.9 720.9c-16 0-29 13-29 29L372.9 849.7c0 16 13 29 29 29s29-13 29-29l0-99.9C430.9 733.8 417.9 720.9 401.9 720.9zM577.6 849.7 577.6 749.8 577.6 849.7ZM577.6 720.9c-16 0-29 13-29 29L548.6 849.7c0 16 13 29 29 29s29-13 29-29l0-99.9C606.6 733.8 593.6 720.9 577.6 720.9zM341.5 208.5c0 194 157.7 351.4 352.3 351.4 38.4 0 75.4-6.2 110-17.5l0 219c0 29.5-24.4 53.4-54.6 53.4L648.4 814.8l0-64.9c0-38.4-31.2-69.5-69.7-69.5S509 711.5 509 749.9L509 814.7l-37.5 0 0-64.9c0-38.4-31.2-69.5-69.7-69.5s-69.7 31.1-69.7 69.5L332.1 814.7l-36.8 0 0-64.9c0-38.4-31.2-69.5-69.7-69.5s-69.7 31.1-69.7 69.5L155.9 814.7 54.6 814.7C24.4 814.7 0 790.8 0 761.4l0-788.1c0-29.5 24.4-53.4 54.6-53.4l438.3 0C401.4-16.6 341.5 88.9 341.5 208.5z"  horiz-adv-x="1024" />

    
    <glyph glyph-name="offer-price" unicode="&#59022;" d="M492.288-22.847999999999956h-391.04a33.152 33.152 0 0 0-33.984 32.256V274.24c0 17.856 15.168 32.256 33.92 32.256 18.752 0 33.984-14.4 33.984-32.256v-232.576h326.656c7.488-22.784 17.792-44.416 30.464-64.512z m493.12 611.52c7.68-15.36 12.416-32.448 12.352-50.624 0-65.472-55.872-118.464-124.736-118.464-68.928 0-124.8 52.992-124.8 118.4 0-65.408-55.808-118.4-124.672-118.4-68.8 0-124.672 52.928-124.736 118.336 0-65.408-55.872-118.4-124.672-118.4-68.864 0-124.736 53.12-124.736 118.528 0-65.472-55.808-118.464-124.672-118.464C55.808 419.584 0 472.576 0 537.9839999999999c0 18.24 4.672 35.264 12.352 50.688l69.12 168.32h834.752l69.12-168.32zM78.272 809.344c0 12.48 9.472 22.656 22.528 22.656h797.312c12.416 0 22.528-9.6 22.528-22.656v-4.736a22.208 22.208 0 0 0-22.528-22.656H100.8a22.272 22.272 0 0 0-22.528 22.656v4.736zM761.408-118.84799999999996c-144.96 0-262.528 112-262.528 250.24 0 138.176 117.568 250.24 262.528 250.24 145.024 0 262.592-112.064 262.592-250.24 0-138.24-117.568-250.24-262.592-250.24z m124.032 256.96a21.44 21.44 0 0 1 21.888 20.992 21.44 21.44 0 0 1-21.888 21.056h-56.64l56.512 54.336a20.48 20.48 0 0 1 0 29.76 22.528 22.528 0 0 1-30.912 0l-80.192-77.184-80.256 77.184a22.592 22.592 0 0 1-30.912 0 20.48 20.48 0 0 1 0-29.76l56.512-54.4h-52.928a21.44 21.44 0 0 1-21.888-20.992c0-11.584 9.856-20.992 21.888-20.992h87.488v-42.048h-87.488a21.44 21.44 0 0 1-21.888-20.992c0-11.648 9.792-21.12 21.888-21.12h87.488v-48.96c0-11.648 9.792-21.056 21.888-21.056a21.504 21.504 0 0 1 21.952 21.056v49.024h87.488a21.504 21.504 0 0 1 21.888 21.056 21.44 21.44 0 0 1-21.888 20.992h-87.488v42.048h87.488z"  horiz-adv-x="1024" />

    
    <glyph glyph-name="examine" unicode="&#58984;" d="M691.943 105.49599999999998v65.116c-48.311 21.005-79.82 69.317-79.82 126.031 0 75.618 60.915 136.533 134.433 136.533 73.518 0 134.433-60.915 134.433-136.533 0-56.714-33.609-105.026-79.82-126.031v-65.116h119.729c37.809 0 67.216-29.407 67.216-69.317v-67.216h-483.118v69.317c0 37.809 29.407 67.216 67.216 67.216h119.729zM532.304-58.34400000000005h428.505v-54.613h-428.505v54.613zM673.039 895.289h-525.129c-58.814 0-105.026-46.211-105.026-105.026v-777.189c0-58.814 46.211-105.026 105.026-105.026h281.469v130.231c0 77.719 63.015 142.835 140.734 144.935-21.005 33.609-33.609 73.518-33.609 115.529 0 117.629 94.523 212.151 210.051 212.151 10.502 0 21.005-2.1 31.507-2.1v281.469c0 58.814-46.211 105.026-105.026 105.026zM483.993 433.176h-273.067c-23.106 0-42.011 18.905-42.011 42.011s18.905 42.011 42.011 42.011h273.067c23.106 0 42.011-18.905 42.011-42.011s-18.905-42.011-42.011-42.011zM631.028 622.222h-420.102c-23.106 0-42.011 18.905-42.011 42.011s18.905 42.011 42.011 42.011h420.102c23.106 0 42.011-18.905 42.011-42.011s-18.905-42.011-42.011-42.011z"  horiz-adv-x="1024" />

    
    <glyph glyph-name="add-bill" unicode="&#58902;" d="M1011.2-6.399999999999977V556.8c0 64-51.2 115.2-115.2 115.2H339.2c-64 0-115.2-51.2-115.2-115.2v-569.6c0-64 51.2-115.2 115.2-115.2h569.6c57.6 12.8 102.4 57.6 102.4 121.6z m-448 57.6v166.4H390.4V332.79999999999995h166.4V505.6h115.2v-166.4h166.4v-115.2h-166.4v-166.4H563.2v-6.4z m0 0zM147.2 172.79999999999995c-38.4 0-64 25.6-64 64v512c0 38.4 25.6 64 64 64h512c38.4 0 64-25.6 64-64v-6.4h76.8v32c0 64-51.2 115.2-115.2 115.2H121.6C57.6 889.6 6.4 838.4 6.4 774.4v-569.6c0-64 51.2-115.2 115.2-115.2h32l-6.4 83.2z m0 0z"  horiz-adv-x="1024" />

    
    <glyph glyph-name="see" unicode="&#58936;" d="M950.649013-50.39775799999995L840.688555 59.56269999999995c24.921669 37.631269 39.602538 82.651028 39.602537 131.16197 0 131.503079-106.602139 238.105218-238.105218 238.105218-131.504021 0-238.105218-106.602139-238.105218-238.105218 0-131.498367 106.601197-238.105218 238.105218-238.105218 48.514711 0 93.529759 14.684638 131.16197 39.597827l109.960459-109.959517c13.683926-13.684869 36.075549-13.684869 49.757591 0l17.584062 17.58312c13.688638 13.684869 13.688638 36.075549 0 49.758533z m-179.883042 179.883984a142.664496 142.664496 0 0 0-67.343537-67.34448c-18.621523-8.892385-39.223738-14.284165-61.237502-14.284164-78.90637 0-142.865204 63.960718-142.865204 142.865204 0 78.89789 63.959776 142.865204 142.865204 142.865203 78.904486 0 142.865204-63.967314 142.865204-142.865203 0-22.014707-5.39178-42.616922-14.286049-61.237502z m-439.225578 16.646484H215.080022c-19.952978 0-36.280968 16.328933-36.280967 36.280968 0 19.959574 16.328933 36.287564 36.280967 36.287564h114.497583c3.017211 34.124067 11.514776 66.670743 24.620136 96.752388H215.085676c-19.959574 0-36.280968 16.32799-36.280968 36.283795 0 19.956747 16.324221 36.284737 36.280968 36.284737h183.366686c35.509233 43.568634 82.545492 77.366669 136.458578 96.758043H215.084734c-19.959574 0-36.280968 16.328933-36.280968 36.284737s16.324221 36.284737 36.280968 36.284737h558.556162c19.952035 0 36.286622-16.328933 36.286622-36.284737s-16.334586-36.284737-36.286622-36.284737h-27.35466C844.10718 449.599831 919.275489 366.985552 944.065238 264.67459799999995V786.048964c0 60.474248-49.4815 109.951036-109.953863 109.951036H154.606717c-60.472363 0-109.949151-49.474904-109.949151-109.951036v-785.056144c0-60.471421 49.474904-109.949151 109.949151-109.949152h398.54883c-116.006187 33.771651-204.097052 133.024876-221.617038 255.081504zM215.085676 726.680964h558.556163c19.952035 0 36.286622-16.328933 36.286621-36.280968 0-19.959574-16.334586-36.284737-36.286621-36.284737H215.085676c-19.959574 0-36.280968 16.326106-36.280968 36.284737 0 19.952978 16.324221 36.280968 36.280968 36.280968z"  horiz-adv-x="1024" />

    
    <glyph glyph-name="price" unicode="&#58922;" d="M783.04-128a240.96 240.96 0 1 0 0 481.92 240.96 240.96 0 0 0 0-481.92z m120.448 226.88c0 7.936-10.24 14.336-22.848 14.336h-69.376l84.544 79.168a23.36 23.36 0 0 1-0.128 34.432 27.2 27.2 0 0 1-36.736 0.064l-76.16-71.296-76.096 71.296a27.2 27.2 0 0 1-36.736-0.064 23.232 23.232 0 0 1-0.064-34.432l84.48-79.168h-68.8c-12.608 0-22.848-6.4-22.848-14.336v-1.472c0-7.936 10.24-14.4 22.848-14.4h67.52l-0.064-0.192 0.192-30.144h-45.376a15.04 15.04 0 1 1 0-30.08h45.504l0.128-34.304c0-14.336 13.312-25.92 29.696-25.92s29.696 11.648 29.696 25.92l0.128 34.304h45.504a15.04 15.04 0 0 1 0 30.08h-45.376l0.192 30.144-0.064 0.192h67.52c12.608 0 22.848 6.464 22.848 14.4v1.472z m-406.016 109.248c-2.176 1.28-4.48 2.368-6.336 4.16l-37.824 37.504a87.424 87.424 0 0 1-62.144 25.6h-0.192a87.296 87.296 0 0 1-62.016-25.344l-39.168-38.528a28.736 28.736 0 0 0-40.192 0l-39.168 38.464a87.808 87.808 0 0 1-62.08 25.472h-0.128c-23.04 0.064-45.12-8.96-61.568-25.088l-61.568-55.168a29.888 29.888 0 0 1 39.872-44.48l62.08 55.616 1.152 1.088a28.736 28.736 0 0 0 40.256 0.064l39.168-38.528c16.512-16.32 38.848-25.408 62.08-25.344 23.36 0 45.376 9.024 62.016 25.344l39.168 38.528a28.8 28.8 0 0 0 40.32-0.064l37.824-37.504c9.984-9.92 22.08-16.832 35.136-21.056-1.408-11.776-2.368-23.68-2.368-35.904 0-20.608 2.112-40.768 6.08-60.224H120.448A120.384 120.384 0 0 0 0 173.18399999999997V775.488C0 842.048 53.952 896 120.448 896h602.432c66.496 0 120.384-53.952 120.384-120.448v-367.424a301.312 301.312 0 0 1-345.792-200zM180.736 519.488a45.184 45.184 0 1 1-90.368 0v-120.448a45.184 45.184 0 1 1 90.368 0V519.488z m150.592 210.88a45.184 45.184 0 1 1-90.368 0v-331.264a45.12 45.12 0 1 1 90.368 0V730.3679999999999zM481.856 640a45.184 45.184 0 1 1-90.304 0v-240.896a45.184 45.184 0 1 1 90.368 0V640z m0 0"  horiz-adv-x="1024" />

    
    <glyph glyph-name="purchase" unicode="&#59795;" d="M232.9 681.2c18.3 18.2 48.2 18.2 66.2 0L541 439.3c18.2-18.3 18.2-48 0-66.2-18.1-18.3-47.9-18.3-66.2 0L232.9 614.8c-18.1 18.3-18.1 48 0 66.4z m636.9-238.8H574.4c15.5-28.7 11.3-65.5-12.9-89.8-29.5-29.5-77.5-29.5-107 0l-89.7 89.8H153.2c-29.6 0-54-24.3-54-54s24.3-54 54-54h12.9l124.5-364.9h449.1l124.5 364.9h5.7c29.7 0 54 24.3 54 54-0.1 29.7-24.4 54-54.1 54zM295.3 300.5h435.5c15.2 0 27.6-12.5 27.6-27.7s-12.4-27.7-27.6-27.7H295.3c-15.2 0-27.7 12.5-27.7 27.7s12.5 27.7 27.7 27.7z m60.8-219.7h316.5c15.1 0 27.6-12.6 27.6-27.8 0-15.2-12.5-27.7-27.6-27.7H356.1c-15.2 0-27.7 12.5-27.7 27.7 0 15.3 12.6 27.8 27.7 27.8z m-30.4 108.1h380.1c15.2 0 27.7-12.6 27.7-27.9 0-15.2-12.5-27.6-27.7-27.6H325.7c-15.2 0-27.6 12.4-27.6 27.6 0.1 15.4 12.4 27.9 27.6 27.9z m0 0M544.4 798.6v-158h-79l157.9-158 158 158h-79v158H544.4z m0 0"  horiz-adv-x="1024" />

    
    <glyph glyph-name="seal" unicode="&#58960;" d="M125.730997-13.928520000000049h798.463818c25.925812 2.594909 23.330904-5.189817 23.330904 23.330903v64.802895c0 36.29381-7.773089 44.078535-44.066899 44.078535H747.903946c-20.735995 15.546178-23.330904 36.29381-28.509084 41.471991-90.740343 101.096704-38.900355 168.494507 18.152723 261.829758 10.367998 12.962906 20.735995 25.925812 28.509085 41.471991 23.330904 41.483627 36.29381 88.145435 36.293809 139.985423C802.350479 763.787666 672.733054 896 509.405091 896 348.672037 896 216.47134 766.382575 216.47134 603.054612a287.988298 287.988298 0 0 1 62.219622-178.874141c62.219622-98.513432 163.316327-178.885778 0-305.908294H123.136088c-28.509084 0-44.066899-15.557815-44.066899-44.078536v-67.397803c0-25.925812 18.141087-20.724359 46.661808-20.724358z m865.861621-44.0669H35.00229a23.237813 23.237813 0 0 1-23.330904-23.34254v-23.330903A23.226177 23.226177 0 0 1 35.00229-127.99976700000002h953.99542a23.237813 23.237813 0 0 1 23.330904 23.330904V-81.33795999999995c0 12.962906-10.367998 23.34254-20.735996 23.34254z m0 0"  horiz-adv-x="1024" />

    


  </font>
</defs>
</svg>
